<!-- Generator: Adobe Illustrator 18.0.0, SVG Export Plug-In  -->
<svg version="1.1"
	 xmlns="http://www.w3.org/2000/svg" xmlns:xlink="http://www.w3.org/1999/xlink" xmlns:a="http://ns.adobe.com/AdobeSVGViewerExtensions/3.0/"
	 x="0px" y="0px" width="82.2px" height="68.7px" viewBox="0 0 82.2 68.7" enable-background="new 0 0 82.2 68.7"
	 xml:space="preserve">
<defs>
</defs>
<g>
	<path fill="#3688FF" d="M41.1,34.4 M41.1,34.4"/>
	<path fill="#FFCD2E" d="M76.3,11.5c2.8,0,5,1.6,5.7,4.2c0.1,0.6,0.2,1.1,0.2,1.7c0,15.1,0,30.3,0,45.5c0,3.4-2.5,5.9-5.9,5.9H5.9
		c-3.4,0-5.9-2.5-5.9-5.9V11.5C0,11.5,65.2,11.5,76.3,11.5L76.3,11.5z M76.3,11.5"/>
	<path fill="#CE9F09" d="M41.3,11.5C41.3,5.1,36.2,0,29.9,0H5.9C2.5,0,0,2.5,0,5.9v5.6C3,11.5,41.6,11.5,41.3,11.5L41.3,11.5z
		 M41.3,11.5"/>
</g>
</svg>