<!-- Generator: Adobe Illustrator 18.0.0, SVG Export Plug-In  -->
<svg version="1.1"
	 xmlns="http://www.w3.org/2000/svg" xmlns:xlink="http://www.w3.org/1999/xlink" xmlns:a="http://ns.adobe.com/AdobeSVGViewerExtensions/3.0/"
	 x="0px" y="0px" width="20px" height="16.7px" viewBox="0 0 20 16.7" enable-background="new 0 0 20 16.7" xml:space="preserve">
<defs>
</defs>
<g>
	<path fill="#3688FF" d="M10,8.4 M10,8.4"/>
	<path fill="#FFCD2E" d="M18.6,2.8c0.7,0,1.2,0.4,1.4,1C20,4,20,4.1,20,4.2c0,3.7,0,7.4,0,11.1c0,0.8-0.6,1.4-1.4,1.4H1.4
		c-0.8,0-1.4-0.6-1.4-1.4V2.8C0,2.8,15.9,2.8,18.6,2.8L18.6,2.8z M18.6,2.8"/>
	<path fill="#CE9F09" d="M10.1,2.8C10.1,1.2,8.8,0,7.3,0H1.4C0.6,0,0,0.6,0,1.4v1.4C0.7,2.8,10.1,2.8,10.1,2.8L10.1,2.8z M10.1,2.8"
		/>
</g>
</svg>