<?xml version="1.0" encoding="utf-8"?>
<!-- Generator: Adobe Illustrator 18.0.0, SVG Export Plug-In . SVG Version: 6.00 Build 0)  -->
<!DOCTYPE svg PUBLIC "-//W3C//DTD SVG 1.1//EN" "http://www.w3.org/Graphics/SVG/1.1/DTD/svg11.dtd">
<svg version="1.1" id="图层_1" xmlns="http://www.w3.org/2000/svg" xmlns:xlink="http://www.w3.org/1999/xlink" x="0px" y="0px"
	 viewBox="0 0 24 24" enable-background="new 0 0 24 24" xml:space="preserve">
<rect x="1" y="1" display="none" width="22" height="22"/>
<g>
	<path fill="#30BF8F" d="M15.1,2C15,2,6.4,2,6.4,2C5,2,3.9,3.1,3.9,4.5v15C3.9,20.9,5,22,6.4,22h11.2c1.4,0,2.5-1.1,2.5-2.5V7
		L15.1,2z"/>
	<path fill="#68E0B1" d="M16.4,7c-0.7,0-1.3-0.6-1.3-1.3V2l5,5H16.4z"/>
	<g>
		<path fill="#FFFFFF" d="M10.9,17.8c0,0.3,0.1,0.5,0.4,0.6c0.2,0.1,0.5,0.1,0.7,0c0.2-0.1,0.4-0.4,0.4-0.6c0-0.3-0.1-0.5-0.4-0.6
			c-0.2-0.1-0.5-0.1-0.7,0C11,17.3,10.9,17.5,10.9,17.8L10.9,17.8z M10.9,17.8"/>
		<path fill="#FFFFFF" d="M12,7.5c-1.8,0-3.2,1.4-3.2,3.2c0,0.4,0.3,0.6,0.6,0.6s0.6-0.3,0.6-0.6c0-1.1,0.9-1.9,1.9-1.9
			s1.9,0.9,1.9,1.9c0,0,0,0,0,0c0,0.7-0.5,1.2-1.2,1.9c-0.7,0.7-1.7,1.6-1.9,3.2c0,0.4,0.2,0.7,0.6,0.7c0,0,0,0,0.1,0
			c0.3,0,0.6-0.2,0.6-0.6c0.1-1.1,0.8-1.7,1.5-2.4c0.7-0.7,1.5-1.5,1.6-2.8c0,0,0,0,0,0c0,0,0,0,0,0C15.2,8.9,13.8,7.5,12,7.5
			L12,7.5z M12,7.5"/>
	</g>
</g>
</svg>
