<?xml version="1.0" encoding="utf-8"?>
<!-- Generator: Adobe Illustrator 18.0.0, SVG Export Plug-In . SVG Version: 6.00 Build 0)  -->
<!DOCTYPE svg PUBLIC "-//W3C//DTD SVG 1.1//EN" "http://www.w3.org/Graphics/SVG/1.1/DTD/svg11.dtd">
<svg version="1.1" id="图层_1" xmlns="http://www.w3.org/2000/svg" xmlns:xlink="http://www.w3.org/1999/xlink" x="0px" y="0px"
	 viewBox="0 0 24 24" enable-background="new 0 0 24 24" xml:space="preserve">
<rect x="1" y="1" display="none" width="22" height="22"/>
<g>
	<g>
		<path fill="#FF4752" d="M15.1,2C15,2,6.4,2,6.4,2C5,2,3.9,3.1,3.9,4.5v15C3.9,20.9,5,22,6.4,22h11.2c1.4,0,2.5-1.1,2.5-2.5V7
			L15.1,2z"/>
		<path fill="#FF9094" d="M16.4,7c-0.7,0-1.3-0.6-1.3-1.3V2l5,5H16.4z"/>
	</g>
	<path fill="#FFFFFF" d="M16.3,16c-0.9-0.1-1.7-0.4-2.4-1c-1.3,0.3-2.6,0.7-3.9,1.2c-1,1.8-2,2.7-2.8,2.7c-0.2,0-0.4,0-0.5-0.1
		c-0.4-0.2-0.6-0.5-0.6-0.9c0-0.3,0.1-1.1,3.2-2.5c0.7-1.3,1.3-2.6,1.7-4.1c-0.4-0.8-1.2-2.7-0.7-3.7c0.2-0.4,0.6-0.6,1-0.5
		c0.3,0,0.7,0.2,0.9,0.4c0.4,0.6,0.4,1.8-0.2,3.7c0.5,1,1.2,1.9,2,2.6c0.7-0.1,1.4-0.2,2.1-0.2c1.5,0,1.8,0.8,1.7,1.2
		C17.9,16,16.8,16,16.3,16L16.3,16z M7.1,18L7.1,18c0.6-0.2,0.9-0.5,1.2-0.9C7.8,17.3,7.4,17.6,7.1,18L7.1,18z M11.4,8.2L11.4,8.2
		c-0.1,0-0.2,0-0.2,0c-0.1,0.6,0,1.1,0.2,1.7C11.6,9.4,11.6,8.8,11.4,8.2L11.4,8.2z M11.7,13L11.7,13L11.7,13
		c-0.4,0.8-0.7,1.5-1,2.3l0.1,0v0.1c0.7-0.3,1.5-0.5,2.2-0.7l0,0H13C12.5,14.1,12,13.5,11.7,13L11.7,13z M16.1,14.7
		c-0.3,0-0.6,0-0.9,0.1c0.3,0.2,0.7,0.2,1,0.3c0.2,0,0.5,0,0.7-0.1C16.9,14.9,16.8,14.7,16.1,14.7L16.1,14.7z M16.1,14.7"/>
</g>
</svg>
