<?xml version="1.0" encoding="utf-8"?>
<!-- Generator: Adobe Illustrator 18.0.0, SVG Export Plug-In . SVG Version: 6.00 Build 0)  -->
<!DOCTYPE svg PUBLIC "-//W3C//DTD SVG 1.1//EN" "http://www.w3.org/Graphics/SVG/1.1/DTD/svg11.dtd">
<svg version="1.1" id="图层_1" xmlns="http://www.w3.org/2000/svg" xmlns:xlink="http://www.w3.org/1999/xlink" x="0px" y="0px"
	 viewBox="0 0 24 24" enable-background="new 0 0 24 24" xml:space="preserve">
<rect x="1" y="1" display="none" width="22" height="22"/>
<g>
	<path d="M12,3c-5,0-9,4-9,9c0,5,4,9,9,9c5,0,9-4,9-9C21,7,17,3,12,3L12,3z M12,19.8c-4.3,0-7.8-3.5-7.8-7.8S7.7,4.2,12,4.2
		s7.8,3.5,7.8,7.8S16.3,19.8,12,19.8L12,19.8z M12,19.8"/>
	<path d="M10.4,9C10,9,9.8,9.2,9.8,9.6v4.9c0,0.3,0.3,0.6,0.6,0.6c0.3,0,0.6-0.3,0.6-0.6V9.6C11,9.2,10.7,9,10.4,9L10.4,9z M13.6,9
		C13.3,9,13,9.2,13,9.6v4.9c0,0.3,0.3,0.6,0.6,0.6c0.3,0,0.6-0.3,0.6-0.6V9.6C14.2,9.2,14,9,13.6,9L13.6,9z M13.6,9"/>
</g>
</svg>
