<?xml version="1.0" encoding="utf-8"?>
<!-- Generator: Adobe Illustrator 18.0.0, SVG Export Plug-In . SVG Version: 6.00 Build 0)  -->
<!DOCTYPE svg PUBLIC "-//W3C//DTD SVG 1.1//EN" "http://www.w3.org/Graphics/SVG/1.1/DTD/svg11.dtd">
<svg version="1.1" id="图层_1" xmlns="http://www.w3.org/2000/svg" xmlns:xlink="http://www.w3.org/1999/xlink" x="0px" y="0px"
	 viewBox="0 0 24 24" enable-background="new 0 0 24 24" xml:space="preserve">
<rect x="1" y="1" display="none" width="22" height="22"/>
<g>
	<g>
		<path fill="#EB6A34" d="M15.1,2C15,2,6.4,2,6.4,2C5,2,3.9,3.1,3.9,4.5v15C3.9,20.9,5,22,6.4,22h11.2c1.4,0,2.5-1.1,2.5-2.5V7
			L15.1,2z"/>
		<path fill="#F19776" d="M16.4,7c-0.7,0-1.3-0.6-1.3-1.3V2l5,5H16.4z"/>
	</g>
	<g>
		<polygon fill="#FFFFFF" points="18.5,19.1 5.5,19.1 5.5,16.5 9.4,10 14.7,16.5 18.5,13.9 		"/>
		<path fill="#FFFFFF" d="M18.5,10.6c0,1.1-0.9,1.9-1.9,1.9c-1.1,0-1.9-0.9-1.9-1.9s0.9-1.9,1.9-1.9C17.6,8.7,18.5,9.6,18.5,10.6
			L18.5,10.6z"/>
	</g>
</g>
</svg>
