<?xml version="1.0" encoding="utf-8"?>
<!-- Generator: Adobe Illustrator 18.0.0, SVG Export Plug-In . SVG Version: 6.00 Build 0)  -->
<!DOCTYPE svg PUBLIC "-//W3C//DTD SVG 1.1//EN" "http://www.w3.org/Graphics/SVG/1.1/DTD/svg11.dtd">
<svg version="1.1" id="图层_1" xmlns="http://www.w3.org/2000/svg" xmlns:xlink="http://www.w3.org/1999/xlink" x="0px" y="0px"
	 viewBox="0 0 24 24" enable-background="new 0 0 24 24" xml:space="preserve">
<rect x="1" y="1" display="none" width="22" height="22"/>
<path d="M20.8,20L17,16.2c0,0,0,0,0,0c1.2-1.4,1.9-3.2,1.9-5.2c0-4.4-3.6-8-8-8s-8,3.6-8,8s3.6,8,8,8c2,0,3.8-0.7,5.2-1.9
	c0,0,0,0,0,0l3.8,3.8c0.1,0.1,0.3,0.2,0.4,0.2h0l0,0c0.2,0,0.3-0.1,0.4-0.2C21.1,20.6,21.1,20.2,20.8,20z M13.6,17.2
	c-0.8,0.4-1.7,0.5-2.6,0.5s-1.8-0.2-2.6-0.5c-0.8-0.3-1.5-0.8-2.1-1.4c-0.6-0.6-1.1-1.3-1.4-2.1c-0.4-0.8-0.5-1.7-0.5-2.6
	s0.2-1.8,0.5-2.6c0.3-0.8,0.8-1.5,1.4-2.1s1.3-1.1,2.1-1.4C9.2,4.4,10,4.2,11,4.2s1.8,0.2,2.6,0.5c0.8,0.3,1.5,0.8,2.1,1.4
	c0.6,0.6,1.1,1.3,1.4,2.1c0.4,0.8,0.5,1.7,0.5,2.6s-0.2,1.8-0.5,2.6c-0.3,0.8-0.8,1.5-1.4,2.1C15.1,16.4,14.4,16.9,13.6,17.2z"/>
</svg>
