<?xml version="1.0" encoding="utf-8"?>
<!-- Generator: Adobe Illustrator 18.0.0, SVG Export Plug-In . SVG Version: 6.00 Build 0)  -->
<!DOCTYPE svg PUBLIC "-//W3C//DTD SVG 1.1//EN" "http://www.w3.org/Graphics/SVG/1.1/DTD/svg11.dtd">
<svg version="1.1" id="图层_1" xmlns="http://www.w3.org/2000/svg" xmlns:xlink="http://www.w3.org/1999/xlink" x="0px" y="0px"
	 viewBox="0 0 24 24" enable-background="new 0 0 24 24" xml:space="preserve">
<rect x="1" y="1" display="none" width="22" height="22"/>
<path d="M15.1,3H5.9c-0.6,0-1,0.4-1,1v16c0,0.6,0.4,1,1,1h12.3c0.6,0,1-0.4,1-1V6.9L15.1,3z M7.8,10h8.4v1.4H7.8V10z M7.8,13.2h7.4
	v1.4H7.8V13.2z M12.5,17.8H7.8v-1.4h4.7V17.8z M17.5,18.5l-0.8-0.9v3.1h-1v-3l-0.9,0.9l-0.7-0.7l2.1-2.2l2.1,2.2L17.5,18.5z"/>
</svg>
