<?xml version="1.0" encoding="utf-8"?>
<!-- Generator: Adobe Illustrator 18.0.0, SVG Export Plug-In . SVG Version: 6.00 Build 0)  -->
<!DOCTYPE svg PUBLIC "-//W3C//DTD SVG 1.1//EN" "http://www.w3.org/Graphics/SVG/1.1/DTD/svg11.dtd">
<svg version="1.1" id="图层_1" xmlns="http://www.w3.org/2000/svg" xmlns:xlink="http://www.w3.org/1999/xlink" x="0px" y="0px"
	 viewBox="0 0 24 24" enable-background="new 0 0 24 24" xml:space="preserve">
<rect x="1" y="1" display="none" width="22" height="22"/>
<g>
	<path d="M12,3c-4.9,0-9,4.1-9,9c0,5,4.1,9,9,9c5,0,9-4.1,9-9C21,7.1,16.9,3,12,3L12,3z M12,16.8c-0.5,0-1-0.4-1-1s0.5-1,1-1
		c0.5,0,1,0.4,1,1S12.5,16.8,12,16.8L12,16.8z M12.8,13.1c0,0.6-0.3,1.2-0.8,1.2c-0.6,0-0.8-0.5-0.8-1.2l-0.3-4.8
		c0-0.6,0.5-1.2,1.1-1.2s1.2,0.5,1.2,1.2L12.8,13.1z M12.8,13.1"/>
</g>
</svg>
