<?xml version="1.0" encoding="utf-8"?>
<!-- Generator: Adobe Illustrator 18.0.0, SVG Export Plug-In . SVG Version: 6.00 Build 0)  -->
<!DOCTYPE svg PUBLIC "-//W3C//DTD SVG 1.1//EN" "http://www.w3.org/Graphics/SVG/1.1/DTD/svg11.dtd">
<svg version="1.1" id="图层_1" xmlns="http://www.w3.org/2000/svg" xmlns:xlink="http://www.w3.org/1999/xlink" x="0px" y="0px"
	 viewBox="0 0 24 24" enable-background="new 0 0 24 24" xml:space="preserve">
<rect x="1" y="1" display="none" width="22" height="22"/>
<path d="M9.2,16.4c0,0-0.1,0.1-0.2,0.1l-2.8,0.6l0.7,0.7L7.5,15c0,0,0.1-0.1,0.1-0.2l9.5-9.5c0.2-0.2,0.2-0.6,0-0.9
	c-0.2-0.2-0.6-0.2-0.9,0l-9.5,9.5c-0.2,0.2-0.4,0.5-0.4,0.8l-0.6,2.8C5.6,18,6,18.4,6.4,18.3l2.8-0.6c0.3-0.1,0.6-0.2,0.8-0.4
	l9.5-9.5c0.2-0.2,0.2-0.6,0-0.9c-0.2-0.2-0.6-0.2-0.9,0L9.2,16.4z M10.3,4.3H3.9C3.4,4.3,3,4.7,3,5.2v14.9C3,20.6,3.4,21,3.9,21
	h14.9c0.5,0,0.9-0.4,0.9-0.9v-9.6c0-0.3-0.3-0.6-0.6-0.6c-0.3,0-0.6,0.3-0.6,0.6v9.6c0-0.2,0.1-0.3,0.3-0.3H3.9
	c0.2,0,0.3,0.1,0.3,0.3V5.2c0,0.2-0.1,0.3-0.3,0.3h9.6c0.3,0,0.6-0.3,0.6-0.6s-0.3-0.6-0.6-0.6L10.3,4.3L10.3,4.3z M20.7,6.6
	c0.4-0.4,0.4-0.9,0-1.3l-2-2c-0.4-0.4-0.9-0.4-1.3,0l-1.2,1.2c-0.2,0.2-0.2,0.6,0,0.9c0.2,0.2,0.6,0.2,0.9,0l1.2-1.2
	c-0.1,0.1-0.3,0.1-0.5,0l2,2c-0.1-0.1-0.1-0.3,0-0.5l-1.2,1.2c-0.2,0.2-0.2,0.6,0,0.9c0.2,0.2,0.6,0.2,0.9,0L20.7,6.6L20.7,6.6z"/>
</svg>
