<?xml version="1.0" encoding="utf-8"?>
<!-- Generator: Adobe Illustrator 18.0.0, SVG Export Plug-In . SVG Version: 6.00 Build 0)  -->
<!DOCTYPE svg PUBLIC "-//W3C//DTD SVG 1.1//EN" "http://www.w3.org/Graphics/SVG/1.1/DTD/svg11.dtd">
<svg version="1.1" id="图层_1" xmlns="http://www.w3.org/2000/svg" xmlns:xlink="http://www.w3.org/1999/xlink" x="0px" y="0px"
	 viewBox="0 0 24 24" enable-background="new 0 0 24 24" xml:space="preserve">
<rect x="1" y="1" display="none" width="22" height="22"/>
<path d="M12,3c-5,0-9,4-9,9c0,5,4,9,9,9s9-4,9-9C21,7,17,3,12,3z M17.4,9.5l-6.2,6.4c0,0,0,0.1-0.1,0.1c-0.2,0.2-0.6,0.2-0.9,0
	l-3.1-3.1c-0.2-0.3-0.2-0.7,0-0.9c0.3-0.3,0.6-0.3,0.9,0l2.6,2.7l5.9-6c0.2-0.3,0.6-0.3,0.9,0C17.7,8.8,17.7,9.2,17.4,9.5z"/>
</svg>
