<?xml version="1.0" encoding="utf-8"?>
<!-- Generator: Adobe Illustrator 18.0.0, SVG Export Plug-In . SVG Version: 6.00 Build 0)  -->
<!DOCTYPE svg PUBLIC "-//W3C//DTD SVG 1.1//EN" "http://www.w3.org/Graphics/SVG/1.1/DTD/svg11.dtd">
<svg version="1.1" id="图层_1" xmlns="http://www.w3.org/2000/svg" xmlns:xlink="http://www.w3.org/1999/xlink" x="0px" y="0px"
	 viewBox="0 0 24 24" enable-background="new 0 0 24 24" xml:space="preserve">
<rect x="-101" y="-104" display="none" width="22" height="22"/>
<rect x="-75" y="-104" display="none" width="22" height="22"/>
<rect x="-50" y="-104" display="none" width="22" height="22"/>
<rect x="-24" y="-104" display="none" width="22" height="22"/>
<rect x="1" y="-104" display="none" width="22" height="22"/>
<rect x="26" y="-104" display="none" width="22" height="22"/>
<rect x="51" y="-104" display="none" width="22" height="22"/>
<rect x="76" y="-104" display="none" width="22" height="22"/>
<rect x="101" y="-104" display="none" width="22" height="22"/>
<rect x="126" y="-104" display="none" width="22" height="22"/>
<rect x="126" y="-77" display="none" width="22" height="22"/>
<rect x="101" y="-77" display="none" width="22" height="22"/>
<rect x="76" y="-77" display="none" width="22" height="22"/>
<rect x="51" y="-77" display="none" width="22" height="22"/>
<rect x="26" y="-77" display="none" width="22" height="22"/>
<rect x="1" y="-77" display="none" width="22" height="22"/>
<rect x="-24" y="-77" display="none" width="22" height="22"/>
<rect x="-50" y="-77" display="none" width="22" height="22"/>
<rect x="-75" y="-77" display="none" width="22" height="22"/>
<rect x="-101" y="-77" display="none" width="22" height="22"/>
<rect x="-101" y="-51" display="none" width="22" height="22"/>
<rect x="-75" y="-51" display="none" width="22" height="22"/>
<rect x="-50" y="-51" display="none" width="22" height="22"/>
<rect x="-24" y="-51" display="none" width="22" height="22"/>
<rect x="1" y="-51" display="none" width="22" height="22"/>
<rect x="26" y="-51" display="none" width="22" height="22"/>
<rect x="51" y="-51" display="none" width="22" height="22"/>
<rect x="76" y="-51" display="none" width="22" height="22"/>
<rect x="101" y="-51" display="none" width="22" height="22"/>
<rect x="126" y="-51" display="none" width="22" height="22"/>
<rect x="126" y="-24" display="none" width="22" height="22"/>
<rect x="101" y="-24" display="none" width="22" height="22"/>
<rect x="76" y="-24" display="none" width="22" height="22"/>
<rect x="51" y="-24" display="none" width="22" height="22"/>
<rect x="26" y="-24" display="none" width="22" height="22"/>
<rect x="1" y="-24" display="none" width="22" height="22"/>
<rect x="-24" y="-24" display="none" width="22" height="22"/>
<rect x="-50" y="-24" display="none" width="22" height="22"/>
<rect x="-75" y="-24" display="none" width="22" height="22"/>
<rect x="-101" y="-24" display="none" width="22" height="22"/>
<rect x="-101" y="1" display="none" width="22" height="22"/>
<rect x="-75" y="1" display="none" width="22" height="22"/>
<rect x="-50" y="1" display="none" width="22" height="22"/>
<rect x="-24" y="1" display="none" width="22" height="22"/>
<rect x="1" y="1" display="none" width="22" height="22"/>
<rect x="26" y="1" display="none" width="22" height="22"/>
<rect x="51" y="1" display="none" width="22" height="22"/>
<rect x="76" y="1" display="none" width="22" height="22"/>
<rect x="101" y="1" display="none" width="22" height="22"/>
<rect x="126" y="1" display="none" width="22" height="22"/>
<rect x="126" y="27" display="none" width="22" height="22"/>
<rect x="101" y="27" display="none" width="22" height="22"/>
<rect x="76" y="27" display="none" width="22" height="22"/>
<rect x="51" y="27" display="none" width="22" height="22"/>
<rect x="26" y="27" display="none" width="22" height="22"/>
<rect x="1" y="27" display="none" width="22" height="22"/>
<path d="M-39,21c-5,0-9-4-9-9s4-9,9-9s9,4,9,9S-34,21-39,21L-39,21z M-35.6,9.4c0.2-0.2,0.2-0.6,0-0.8s-0.6-0.2-0.8,0l-2.8,2.8
	L-42,8.6c-0.2-0.2-0.6-0.2-0.8,0c-0.2,0.2-0.2,0.6,0,0.8l2.8,2.8l-2.8,2.8c-0.2,0.2-0.2,0.6,0,0.8c0.2,0.2,0.6,0.2,0.8,0l2.8-2.8
	l2.8,2.8c0.2,0.2,0.6,0.2,0.8,0c0.2-0.2,0.2-0.6,0-0.8l-2.8-2.8L-35.6,9.4z"/>
<path d="M-41.8-35.6c0,0-0.1,0.1-0.2,0.1l-2.8,0.6l0.7,0.7l0.6-2.8c0,0,0.1-0.1,0.1-0.2l9.5-9.5c0.2-0.2,0.2-0.6,0-0.9
	c-0.2-0.2-0.6-0.2-0.9,0l-9.5,9.5c-0.2,0.2-0.4,0.5-0.4,0.8l-0.6,2.8c-0.1,0.4,0.3,0.8,0.7,0.7l2.8-0.6c0.3-0.1,0.6-0.2,0.8-0.4
	l9.5-9.5c0.2-0.2,0.2-0.6,0-0.9c-0.2-0.2-0.6-0.2-0.9,0L-41.8-35.6z M-40.7-47.7h-6.4c-0.5,0-0.9,0.4-0.9,0.9v14.9
	c0,0.5,0.4,0.9,0.9,0.9h14.9c0.5,0,0.9-0.4,0.9-0.9v-9.6c0-0.3-0.3-0.6-0.6-0.6s-0.6,0.3-0.6,0.6v9.6c0-0.2,0.1-0.3,0.3-0.3h-14.9
	c0.2,0,0.3,0.1,0.3,0.3v-14.9c0,0.2-0.1,0.3-0.3,0.3h9.6c0.3,0,0.6-0.3,0.6-0.6s-0.3-0.6-0.6-0.6L-40.7-47.7L-40.7-47.7z
	 M-30.3-45.4c0.4-0.4,0.4-0.9,0-1.3l-2-2c-0.4-0.4-0.9-0.4-1.3,0l-1.2,1.2c-0.2,0.2-0.2,0.6,0,0.9c0.2,0.2,0.6,0.2,0.9,0l1.2-1.2
	c-0.1,0.1-0.3,0.1-0.5,0l2,2c-0.1-0.1-0.1-0.3,0-0.5l-1.2,1.2c-0.2,0.2-0.2,0.6,0,0.9c0.2,0.2,0.6,0.2,0.9,0L-30.3-45.4L-30.3-45.4z
	"/>
<path d="M-64,3c-5,0-9,4-9,9c0,5,4,9,9,9s9-4,9-9C-55,7-59,3-64,3z M-58.6,9.5l-6.2,6.4c0,0,0,0.1-0.1,0.1c-0.2,0.2-0.6,0.2-0.9,0
	l-3.1-3.1c-0.2-0.3-0.2-0.7,0-0.9c0.3-0.3,0.6-0.3,0.9,0l2.6,2.7l5.9-6c0.2-0.3,0.6-0.3,0.9,0C-58.3,8.8-58.3,9.2-58.6,9.5z"/>
<path d="M20.3-16.5c-0.5-1.1-1.1-2-1.9-2.9c-0.8-0.8-1.8-1.5-2.9-1.9C14.4-21.8,13.2-22,12-22s-2.4,0.2-3.5,0.7
	c-1.1,0.5-2,1.1-2.9,1.9s-1.5,1.8-1.9,2.9C3.2-15.4,3-14.2,3-13s0.2,2.4,0.7,3.5c0.5,1.1,1.1,2,1.9,2.9s1.8,1.5,2.9,1.9
	C9.6-4.2,10.8-4,12-4s2.4-0.2,3.5-0.7c1.1-0.5,2-1.1,2.9-1.9c0.8-0.8,1.5-1.8,1.9-2.9c0.5-1.1,0.7-2.3,0.7-3.5S20.8-15.4,20.3-16.5z
	 M12-5.2c-4.3,0-7.8-3.5-7.8-7.8s3.5-7.8,7.8-7.8s7.8,3.5,7.8,7.8S16.3-5.2,12-5.2z M15.9-17c-0.2-0.2-0.6-0.2-0.8,0l-3.2,3.2
	L8.8-17c-0.2-0.2-0.6-0.2-0.8,0s-0.2,0.6,0,0.8l3.2,3.2L7.9-9.9C7.7-9.7,7.7-9.3,8-9.1c0.2,0.2,0.6,0.2,0.8,0l3.2-3.2L15.1-9
	c0.2,0.2,0.6,0.2,0.8,0c0.2-0.2,0.2-0.6,0-0.8L12.8-13l3.2-3.2C16.1-16.4,16.1-16.8,15.9-17z"/>
<path d="M129.2-35c-0.2,0-0.3-0.2-0.2-0.4l7.6-9.5c0.2-0.2,0.4-0.2,0.6,0l7.6,9.5c0.2,0.2,0.1,0.4-0.2,0.4H129.2L129.2-35z"/>
<path d="M44.6-37.5c-0.3,0-0.6,0.2-0.7,0.5h0c-1,2.7-3.6,4.6-6.7,4.6c-3.9,0-7.1-3.2-7.1-7.1s3.2-7.1,7.1-7.1c0.8,0,1.5,0.1,2.2,0.3
	L38.7-45c-0.1,0.1,0,0.3,0.1,0.4c0.1,0,0.1,0,0.2,0l4.2-0.3c0.1,0,0.2-0.1,0.2-0.2c0-0.1,0-0.2,0-0.3v0l-2.3-3.5
	c0,0-0.1-0.1-0.1-0.1c-0.1-0.1-0.3,0-0.4,0.1L40-47.6c-0.9-0.3-1.8-0.5-2.8-0.5c-4.7,0-8.5,3.8-8.5,8.5s3.8,8.5,8.5,8.5
	c3.7,0,6.8-2.2,8-5.5c0.1-0.1,0.1-0.2,0.1-0.3C45.3-37.2,45-37.5,44.6-37.5L44.6-37.5z"/>
<path d="M70.8-5L67-8.8c0,0,0,0,0,0c1.2-1.4,1.9-3.2,1.9-5.2c0-4.4-3.6-8-8-8s-8,3.6-8,8s3.6,8,8,8c2,0,3.8-0.7,5.2-1.9c0,0,0,0,0,0
	L70-4.2C70.1-4.1,70.2-4,70.4-4h0l0,0c0.2,0,0.3-0.1,0.4-0.2C71.1-4.4,71.1-4.8,70.8-5z M63.6-7.8c-0.8,0.4-1.7,0.5-2.6,0.5
	c-0.9,0-1.8-0.2-2.6-0.5c-0.8-0.3-1.5-0.8-2.1-1.4s-1.1-1.3-1.4-2.1c-0.4-0.8-0.5-1.7-0.5-2.6s0.2-1.8,0.5-2.6
	c0.3-0.8,0.8-1.5,1.4-2.1c0.6-0.6,1.3-1.1,2.1-1.4c0.8-0.4,1.7-0.5,2.6-0.5c0.9,0,1.8,0.2,2.6,0.5c0.8,0.3,1.5,0.8,2.1,1.4
	c0.6,0.6,1.1,1.3,1.4,2.1c0.4,0.8,0.5,1.7,0.5,2.6s-0.2,1.8-0.5,2.6c-0.3,0.8-0.8,1.5-1.4,2.1S64.4-8.1,63.6-7.8z"/>
<path d="M112-35c-0.3,0-0.5-0.1-0.7-0.3l-7.1-8.4c-0.2-0.3-0.3-0.6-0.1-0.8c0.1-0.3,0.4-0.4,0.8-0.4h14.3c0.3,0,0.6,0.2,0.8,0.4
	c0.1,0.3,0.1,0.6-0.1,0.8l-7.1,8.4C112.5-35.1,112.3-35,112-35z M105.7-43.8l6.3,7.5l6.3-7.5H105.7z"/>
<g>
	<path d="M90.2-41.5L90.2-41.5l-6.4,0v0h-2v0h-1.5c-0.7,0-1.3,0.5-1.3,1.2v8.7c0,0.7,0.6,1.2,1.3,1.2h13.4c0.7,0,1.3-0.5,1.3-1.2
		v-8.7c0-0.7-0.6-1.2-1.3-1.2h-1.5v0L90.2-41.5z M87.7-35.8v1.9c0,0.1-0.1,0.2-0.2,0.2h-1.1c-0.1,0-0.2-0.1-0.2-0.2v-1.9
		c-0.5-0.2-0.9-0.7-0.9-1.3c0-0.8,0.7-1.5,1.6-1.5c0.9,0,1.6,0.7,1.6,1.5C88.6-36.5,88.2-36,87.7-35.8L87.7-35.8z M87.7-35.8"/>
	<path d="M83.8-44.6c0-1.6,1.4-3,3.2-3c1.8,0,3.2,1.3,3.2,3v3.1h2v-3.2c0-2.6-2.3-4.8-5.2-4.8c-2.9,0-5.2,2.2-5.2,4.8v3.2h2
		L83.8-44.6L83.8-44.6z M83.8-44.6"/>
</g>
<g>
	<path d="M-90,3c-4.9,0-9,4.1-9,9c0,5,4.1,9,9,9c5,0,9-4.1,9-9C-81,7.1-85.1,3-90,3L-90,3z M-90,16.8c-0.5,0-1-0.4-1-1s0.5-1,1-1
		c0.5,0,1,0.4,1,1S-89.5,16.8-90,16.8L-90,16.8z M-89.2,13.1c0,0.6-0.3,1.2-0.8,1.2c-0.6,0-0.8-0.5-0.8-1.2l-0.3-4.8
		c0-0.6,0.5-1.2,1.1-1.2s1.2,0.5,1.2,1.2L-89.2,13.1z M-89.2,13.1"/>
</g>
<g>
	<path d="M128-6.3c0,1.2,1,2.3,2.3,2.3h13.5c1.2,0,2.3-1,2.3-2.3v-9h-18V-6.3z M143.7-19.7h-7.9c0-1.2-1-2.3-2.3-2.3h-3.4
		c-1.2,0-2.3,1-2.3,2.3v3.4h18v-1.1C146-18.7,145-19.7,143.7-19.7L143.7-19.7z M143.7-19.7"/>
</g>
<path d="M18.4-65.4H5.6C5.3-65.4,5-65.7,5-66l0,0c0-0.3,0.3-0.6,0.6-0.6h12.9c0.3,0,0.6,0.3,0.6,0.6l0,0
	C19-65.7,18.7-65.4,18.4-65.4z"/>
<g>
	<path d="M43.3-71.5L31.5-59.7c-0.2,0.2-0.6,0.2-0.8,0l0,0c-0.2-0.2-0.2-0.6,0-0.8l11.8-11.8c0.2-0.2,0.6-0.2,0.8,0l0,0
		C43.6-72.1,43.6-71.7,43.3-71.5z"/>
	<path d="M31.5-72.3l11.8,11.8c0.2,0.2,0.2,0.6,0,0.8l0,0c-0.2,0.2-0.6,0.2-0.8,0L30.7-71.5c-0.2-0.2-0.2-0.6,0-0.8h0
		C30.9-72.6,31.3-72.6,31.5-72.3z"/>
</g>
<path d="M67.9-59.9H56.1c-0.6,0-1.1-0.5-1.1-1.1V-71c0-0.6,0.5-1.1,1.1-1.1h11.9c0.6,0,1.1,0.5,1.1,1.1V-61
	C69-60.4,68.5-59.9,67.9-59.9z M56.2-61.1h11.6v-9.8H56.2V-61.1z"/>
<g>
	<path fill="#079BEF" d="M137.4-83.5l9.1-4.6v-9.1l-9.1,4.6L137.4-83.5 M137-102.5l-9,4.6l9,4.6l9-4.6L137-102.5z M136.5-83.6l0-9.1
		l-9-4.6v9.1L136.5-83.6"/>
</g>
<g>
	<path fill="#3688FF" d="M112-93 M112-93"/>
	<path fill="#FFCD2E" d="M120.5-98.6c0.7,0,1.2,0.4,1.4,1c0,0.1,0.1,0.3,0.1,0.4c0,3.7,0,7.4,0,11.1c0,0.8-0.6,1.4-1.4,1.4h-17.1
		c-0.8,0-1.4-0.6-1.4-1.4v-12.5C102-98.6,117.8-98.6,120.5-98.6L120.5-98.6z M120.5-98.6"/>
	<path fill="#CE9F09" d="M112-98.6c0-1.5-1.2-2.8-2.8-2.8h-5.8c-0.8,0-1.4,0.6-1.4,1.4v1.4C102.7-98.6,112.1-98.6,112-98.6L112-98.6
		z M112-98.6"/>
</g>
<g>
	<rect x="78" y="-96" fill="#F95F5D" width="18" height="6.1"/>
	<path fill="#55C7F7" d="M96-96v-4.8c0-0.6-0.5-1.1-1.1-1.1H79.1c-0.6,0-1.1,0.5-1.1,1.1v4.8H96z"/>
	<path fill="#55C7F7" d="M96-96"/>
	<path fill="#7ECF3B" d="M78-90v4.8c0,0.6,0.5,1.1,1.1,1.1h15.8c0.6,0,1.1-0.5,1.1-1.1V-90H78z M78-90"/>
	<rect x="85" y="-102" fill="#FDAF42" width="4" height="18"/>
	<path fill="#FFFFFF" d="M89.1-94.2v2.5h-4.2v-2.5H89.1 M89.7-95.2h-5.6c-0.1,0-0.3,0.1-0.3,0.3v4c0,0.1,0.1,0.3,0.3,0.3h5.6
		c0.1,0,0.3-0.1,0.3-0.3v-4C89.9-95.1,89.8-95.2,89.7-95.2L89.7-95.2z M89.7-95.2"/>
</g>
<g>
	<path d="M-91.8-48h-5.9c-0.7,0-1.3,0.6-1.3,1.2v13.5c0,0.7,0.6,1.2,1.3,1.2h15.4c0.7,0,1.3-0.6,1.3-1.2v-11.1
		c0-0.7-0.6-1.2-1.3-1.2h-5.9c-0.3,0-0.7-0.1-0.9-0.4l-1.8-1.7C-91.2-47.9-91.5-48-91.8-48 M-91.8-46.8L-90-45
		c0.5,0.5,1.1,0.7,1.8,0.7h5.9v11.1h-15.4v-13.5L-91.8-46.8"/>
	<path d="M-89.4-38.8h2.6c0.4,0,0.6-0.3,0.6-0.6c0-0.3-0.3-0.6-0.6-0.6h-2.6v-2.5c0-0.3-0.3-0.6-0.6-0.6c-0.4,0-0.6,0.3-0.6,0.6v2.5
		h-2.6c-0.4,0-0.6,0.3-0.6,0.6c0,0.3,0.3,0.6,0.6,0.6h2.6v2.5c0,0.3,0.3,0.6,0.6,0.6c0.4,0,0.6-0.3,0.6-0.6V-38.8z M-89.4-38.8"/>
</g>
<path d="M29.1,138.9"/>
<path d="M66.5-78.7"/>
<g>
	<g>
		<path fill="#EB6A34" d="M15.1-103c-0.1,0-8.8,0-8.8,0c-1.4,0-2.5,1.1-2.5,2.5v15C3.9-84.1,5-83,6.4-83h11.2c1.4,0,2.5-1.1,2.5-2.5
			V-98L15.1-103z"/>
		<path fill="#F19776" d="M16.4-98c-0.7,0-1.3-0.6-1.3-1.3v-3.7l5,5H16.4z"/>
	</g>
	<g>
		<polygon fill="#FFFFFF" points="18.5,-85.9 5.5,-85.9 5.5,-88.5 9.4,-95 14.7,-88.5 18.5,-91.1 		"/>
		<path fill="#FFFFFF" d="M18.5-94.4c0,1.1-0.9,1.9-1.9,1.9c-1.1,0-1.9-0.9-1.9-1.9c0-1.1,0.9-1.9,1.9-1.9
			C17.6-96.3,18.5-95.4,18.5-94.4L18.5-94.4z"/>
	</g>
</g>
<path d="M14.2,172.9"/>
<g>
	<g>
		<path fill="#8281F9" d="M40.1-103c-0.1,0-8.8,0-8.8,0c-1.4,0-2.5,1.1-2.5,2.5v15c0,1.4,1.1,2.5,2.5,2.5h11.2
			c1.4,0,2.5-1.1,2.5-2.5V-98L40.1-103z"/>
		<path fill="#AFAFFF" d="M41.4-98c-0.7,0-1.3-0.6-1.3-1.3v-3.7l5,5H41.4z"/>
	</g>
	<path fill="#FFFFFF" d="M40.3-90.6v-1.6c0-0.2,0.1-0.4,0.1-0.4l1.8-1.9c0.6-0.6,1.3-0.8,1.3-0.1v6.5c0,0.6-0.7,0.5-1.3-0.1
		l-1.8-1.9C40.4-90.3,40.3-90.5,40.3-90.6L40.3-90.6z M39.4-88.8c0,0.6-0.4,1-1,1h-7c-0.6,0-1-0.4-1-1v-5.3c0-0.6,0.4-1,1-1h7
		c0.6,0,1,0.4,1,1V-88.8z M39.4-88.8"/>
</g>
<g>
	<g>
		<path fill="#42A0F8" d="M-35.9-103c-0.1,0-8.8,0-8.8,0c-1.4,0-2.5,1.1-2.5,2.5v15c0,1.4,1.1,2.5,2.5,2.5h11.2
			c1.4,0,2.5-1.1,2.5-2.5V-98L-35.9-103z"/>
		<path fill="#7AC5FC" d="M-34.6-98c-0.7,0-1.3-0.6-1.3-1.3v-3.7l5,5H-34.6z"/>
	</g>
	<g>
		<path fill="#FFFFFF" d="M-41.5-89.3l1.6-6.3h2l1.4,6.3h0l1.4-6.3h1.7l-2.1,8.4h-2l-1.5-6.4l-1.6,6.4h-2l-2-8.4h1.9L-41.5-89.3z"/>
	</g>
</g>
<g>
	<g>
		<path fill="#21C800" d="M-60.9-103c-0.1,0-8.8,0-8.8,0c-1.4,0-2.5,1.1-2.5,2.5v15c0,1.4,1.1,2.5,2.5,2.5h11.2
			c1.4,0,2.5-1.1,2.5-2.5V-98L-60.9-103z"/>
		<path fill="#8BDF6A" d="M-59.6-98c-0.7,0-1.3-0.6-1.3-1.3v-3.7l5,5H-59.6z"/>
	</g>
	<g>
		<path fill="#FFFFFF" d="M-62.4-91.3l2.7,4.2h-2.9l-1.6-3l-1.6,3h-2.5l2.8-4.4l-2.7-3.8h2.9l1.5,2.7l1.6-2.7h2.5L-62.4-91.3z"/>
	</g>
</g>
<g>
	<g>
		<path fill="#FF9124" d="M-9.9-103c-0.1,0-8.8,0-8.8,0c-1.4,0-2.5,1.1-2.5,2.5v15c0,1.4,1.1,2.5,2.5,2.5h11.2
			c1.4,0,2.5-1.1,2.5-2.5V-98L-9.9-103z"/>
		<path fill="#FFBC82" d="M-8.6-98c-0.7,0-1.3-0.6-1.3-1.3v-3.7l5,5H-8.6z"/>
	</g>
	<g>
		<path fill="#FFFFFF" d="M-14.4-86.5h-2.1v-9.8h3c2.7,0,4,1,4,3c-0.1,1.9-1.2,2.9-3.4,3h-1.5V-86.5z M-14.4-94.6v2.8
			c0.1,0,0.4,0,0.6,0c1.4,0.1,2.1-0.3,2.1-1.4c0-1-0.7-1.4-2.1-1.4C-14.1-94.6-14.3-94.6-14.4-94.6z"/>
	</g>
</g>
<g>
	<g>
		<path fill="#FF4752" d="M65.1-103c-0.1,0-8.8,0-8.8,0c-1.4,0-2.5,1.1-2.5,2.5v15c0,1.4,1.1,2.5,2.5,2.5h11.2
			c1.4,0,2.5-1.1,2.5-2.5V-98L65.1-103z"/>
		<path fill="#FF9094" d="M66.4-98c-0.7,0-1.3-0.6-1.3-1.3v-3.7l5,5H66.4z"/>
	</g>
	<path fill="#FFFFFF" d="M66.3-89c-0.9-0.1-1.7-0.4-2.4-1c-1.3,0.3-2.6,0.7-3.9,1.2c-1,1.8-2,2.7-2.8,2.7c-0.2,0-0.4,0-0.5-0.1
		c-0.4-0.2-0.6-0.5-0.6-0.9c0-0.3,0.1-1.1,3.2-2.5c0.7-1.3,1.3-2.6,1.7-4.1c-0.4-0.8-1.2-2.7-0.7-3.7c0.2-0.4,0.6-0.6,1-0.5
		c0.3,0,0.7,0.2,0.9,0.4c0.4,0.6,0.4,1.8-0.2,3.7c0.5,1,1.2,1.9,2,2.6c0.7-0.1,1.4-0.2,2.1-0.2c1.5,0,1.8,0.8,1.7,1.2
		C67.9-89,66.8-89,66.3-89L66.3-89z M57.1-87L57.1-87c0.6-0.2,0.9-0.5,1.2-0.9C57.8-87.7,57.4-87.4,57.1-87L57.1-87z M61.4-96.8
		L61.4-96.8c-0.1,0-0.2,0-0.2,0c-0.1,0.6,0,1.1,0.2,1.7C61.6-95.6,61.6-96.2,61.4-96.8L61.4-96.8z M61.7-92L61.7-92L61.7-92
		c-0.4,0.8-0.7,1.5-1,2.3l0.1,0v0.1c0.7-0.3,1.5-0.5,2.2-0.7l0,0H63C62.5-90.9,62-91.5,61.7-92L61.7-92z M66.1-90.3
		c-0.3,0-0.6,0-0.9,0.1c0.3,0.2,0.7,0.2,1,0.3c0.2,0,0.5,0,0.7-0.1C66.9-90.1,66.8-90.3,66.1-90.3L66.1-90.3z M66.1-90.3"/>
</g>
<g>
	<g>
		<path fill="#B5C9D7" d="M-86.9-103c-0.1,0-8.8,0-8.8,0c-1.4,0-2.5,1.1-2.5,2.5v15c0,1.4,1.1,2.5,2.5,2.5h11.2
			c1.4,0,2.5-1.1,2.5-2.5V-98L-86.9-103z"/>
		<path fill="#D6E5EF" d="M-85.6-98c-0.7,0-1.3-0.6-1.3-1.3v-3.7l5,5H-85.6z"/>
	</g>
	<g>
		<path fill="#FFFFFF" d="M-89.6-92.6c0.1,0,0.1,0,0.2,0c0.8,0,1.4-0.1,1.8-0.1c0,0,0.1,0,0.1,0c0.1,0,0.1,0,0.1,0.1
			c0,0.1,0,0.1,0,0.2c0,0.4,0.1,0.8,0.1,1.3c0,0.4,0,0.8-0.1,1.2c0,0,0,0.1,0,0.1c0,0,0,0.1,0,0.1c0,0,0,0-0.1,0c0,0,0,0-0.1,0
			c-0.6-0.1-1.2-0.1-1.9-0.1c0,0-0.1,0-0.1,0c-0.1,0-0.1,0-0.1-0.1L-89.6-92.6C-89.7-92.6-89.7-92.6-89.6-92.6L-89.6-92.6z
			 M-92.6-90c0,0,0-0.1,0-0.1c0-0.4-0.1-0.8-0.1-1.2c0-0.5,0-0.9,0.1-1.3c0,0,0-0.1,0-0.1c0,0,0,0,0-0.1c0,0,0,0,0.1,0
			c0,0,0.1,0,0.1,0c0.5,0.1,1.1,0.1,1.8,0.1c0,0,0.1,0,0.1,0c0.1,0,0.1,0,0.1,0.1v2.4c0,0.1,0,0.1-0.1,0.1c0,0-0.1,0-0.1,0
			c-0.7,0-1.3,0.1-1.9,0.1c0,0-0.1,0-0.1,0C-92.5-89.9-92.5-89.9-92.6-90C-92.5-89.9-92.6-89.9-92.6-90L-92.6-90z M-90.3-96.5v3.2
			c0,0,0,0.1,0,0.1c0,0,0,0-0.1,0l0,0c-0.7,0-1.3-0.1-1.8-0.1c0,0,0,0-0.1,0c0,0-0.1,0-0.1,0c0,0,0-0.1,0-0.1c0,0,0,0,0-0.1
			c0.3-1.3,1-2.3,1.9-3c0,0,0,0,0.1,0C-90.4-96.6-90.4-96.6-90.3-96.5C-90.3-96.5-90.3-96.5-90.3-96.5L-90.3-96.5z M-89.7-96.5
			C-89.7-96.5-89.7-96.5-89.7-96.5c0.1-0.1,0.1-0.1,0.1-0.1c0,0,0.1,0,0.1,0.1c0.9,0.7,1.5,1.6,1.9,2.9c0,0,0,0.1,0,0.1
			c0,0,0,0.1,0,0.1c0,0,0,0-0.1,0c0,0-0.1,0-0.1,0c-0.5,0.1-1.1,0.1-1.7,0.1c0,0-0.1,0-0.2,0c0,0-0.1,0-0.1,0c0,0,0,0,0-0.1V-96.5
			L-89.7-96.5z M-92.3-89.3c0.1,0,0.1,0,0.1,0c0.5-0.1,1.1-0.1,1.7-0.1c0,0,0,0,0.1,0c0,0,0.1,0,0.1,0c0,0,0,0,0,0.1v3.3
			c0,0,0,0.1-0.1,0.1c0,0-0.1,0-0.1,0c0,0,0,0-0.1-0.1c-0.9-0.7-1.5-1.7-1.9-3c0,0,0-0.1,0-0.2C-92.4-89.2-92.4-89.2-92.3-89.3
			C-92.4-89.3-92.4-89.3-92.3-89.3L-92.3-89.3z M-87.6-89.2c0,0,0,0.1,0,0.1c-0.3,1.3-0.9,2.3-1.8,3c0,0-0.1,0-0.1,0.1
			c0,0-0.1,0-0.1,0c0,0-0.1-0.1-0.1-0.1v-3.3c0,0,0-0.1,0-0.1c0,0,0,0,0.1,0c0.1,0,0.1,0,0.2,0c0.6,0,1.2,0,1.7,0.1c0,0,0.1,0,0.1,0
			C-87.6-89.3-87.6-89.3-87.6-89.2C-87.6-89.2-87.6-89.2-87.6-89.2L-87.6-89.2z M-86.8-91.2c0-0.5,0-0.9-0.1-1.3c0-0.1,0-0.1,0-0.2
			c0-0.1,0-0.1,0.1-0.1c0,0,0.1,0,0.1,0c0.7-0.2,1.2-0.4,1.6-0.6l0,0c0,0,0.1,0,0.1,0c0,0,0.1,0,0.1,0.1c0,0,0,0.1,0.1,0.1
			c0.3,0.7,0.5,1.4,0.5,2.2c0,0.7-0.1,1.4-0.4,2c0,0,0,0.1,0,0.1c0,0,0,0-0.1,0.1c0,0-0.1,0-0.1,0l0,0c-0.4-0.3-1-0.5-1.6-0.6
			c0,0-0.1,0-0.1,0c-0.1,0-0.1-0.1-0.1-0.1c0,0,0-0.1,0-0.1C-86.8-90.4-86.8-90.8-86.8-91.2L-86.8-91.2z M-88.2-96.5
			c1.1,0.4,2.1,1.1,2.8,2.1c0,0,0.1,0.1,0.1,0.2c0,0,0,0.1,0,0.1l-0.1,0.1c-0.3,0.2-0.7,0.4-1.3,0.5c0,0-0.1,0-0.1,0
			c-0.1,0-0.1,0-0.1-0.1c0,0,0,0,0-0.1c-0.3-1.2-0.8-2.1-1.5-2.9c0,0,0,0,0-0.1c0,0,0,0,0.1,0C-88.4-96.5-88.3-96.5-88.2-96.5
			L-88.2-96.5z M-86.9-89.2c0,0,0.1,0,0.1,0c0.6,0.1,1,0.3,1.4,0.5l0.1,0.1c0,0,0.1,0.1,0,0.1c0,0.1-0.1,0.1-0.1,0.1
			c-0.7,1.1-1.7,1.9-3,2.3c0,0-0.1,0-0.2,0.1c0,0-0.1,0-0.1,0c0,0,0-0.1,0-0.1c0.7-0.8,1.2-1.7,1.5-2.9c0,0,0-0.1,0-0.2
			C-87-89.1-86.9-89.2-86.9-89.2L-86.9-89.2z M-95-89.1L-95-89.1c-0.1,0-0.1,0-0.1,0c0,0-0.1,0-0.1-0.1c0,0,0,0,0,0
			c-0.3-0.6-0.4-1.3-0.4-2.1c0-0.8,0.2-1.5,0.4-2.2c0,0,0-0.1,0.1-0.1c0,0,0,0,0.1-0.1c0,0,0.1,0,0.1,0l0.1,0
			c0.4,0.3,0.9,0.5,1.5,0.6c0,0,0.1,0,0.1,0c0.1,0,0.1,0.1,0.1,0.1c0,0.1,0,0.1,0,0.2c-0.1,0.4-0.1,0.9-0.1,1.4c0,0.4,0,0.9,0.1,1.3
			c0,0,0,0.1,0,0.1c0,0.1,0,0.1-0.1,0.1c0,0-0.1,0-0.1,0C-94-89.6-94.5-89.4-95-89.1L-95-89.1z M-91.4-96.5
			c-0.8,0.8-1.3,1.7-1.6,2.9c0,0,0,0,0,0c0,0.1-0.1,0.1-0.1,0.1c0,0,0,0-0.1,0c-0.6-0.1-1-0.3-1.3-0.5l-0.1-0.1c0,0-0.1-0.1,0-0.1
			c0,0,0-0.1,0.1-0.1c0.7-1,1.7-1.8,2.9-2.1C-91.7-96.5-91.6-96.6-91.4-96.5C-91.4-96.6-91.4-96.6-91.4-96.5
			C-91.4-96.5-91.4-96.5-91.4-96.5L-91.4-96.5z M-94.7-88.5l0.1-0.1c0.3-0.2,0.8-0.4,1.4-0.5c0,0,0.1,0,0.1,0c0,0,0.1,0,0.1,0
			c0,0,0,0,0,0.1c0,0.1,0,0.1,0,0.1c0.3,1.2,0.8,2.1,1.5,2.9l0,0c0,0,0,0.1,0,0.1c0,0-0.1,0-0.1,0c-1.3-0.4-2.4-1.3-3.2-2.4
			c0,0,0-0.1-0.1-0.1C-94.8-88.4-94.8-88.5-94.7-88.5L-94.7-88.5z M-94.7-88.5"/>
	</g>
</g>
<g>
	<g>
		<path d="M93.8-18.7c0.6,0,1,0.4,1,0.9V-6c0,0.5-0.5,0.9-1,0.9H83.1c-0.6,0-1-0.4-1-0.9v-11.8c0-0.5,0.5-0.9,1-0.9H93.8 M93.8-19.6
			H83.1c-1.1,0-2,0.8-2,1.9V-6c0,1,0.9,1.9,2,1.9h10.7c1.1,0,2-0.8,2-1.9v-11.8C95.9-18.8,94.9-19.6,93.8-19.6L93.8-19.6z
			 M93.8-19.6"/>
		<path d="M93.8-4H83.1C81.9-4,81-4.9,81-6v-11.8c0-1.1,1-2,2.2-2h10.7c1.2,0,2.2,0.9,2.2,2V-6C96-4.9,95-4,93.8-4z M83.1-19.5
			c-1,0-1.9,0.8-1.9,1.7V-6c0,0.9,0.8,1.7,1.9,1.7h10.7c1,0,1.9-0.8,1.9-1.7v-11.8c0-0.9-0.8-1.7-1.9-1.7H83.1z M93.8-4.9H83.1
			C82.5-4.9,82-5.4,82-6v-11.8c0-0.6,0.5-1.1,1.2-1.1h10.7c0.6,0,1.2,0.5,1.2,1.1V-6C95-5.4,94.5-4.9,93.8-4.9z M83.1-18.6
			c-0.5,0-0.9,0.4-0.9,0.8V-6c0,0.4,0.4,0.8,0.9,0.8h10.7c0.5,0,0.9-0.4,0.9-0.8v-11.8c0-0.4-0.4-0.8-0.9-0.8H83.1z"/>
	</g>
	<g>
		<path d="M80.1-7.2c-0.5,0-1-0.4-1-0.9v-12c0-0.5,0.4-0.9,1-0.9h10.8c0.5,0,1,0.4,1,0.9h1c0-1-0.9-1.8-2-1.8H80.1
			c-1.1,0-2,0.8-2,1.8v12c0,1,0.9,1.8,2,1.8h2v-0.9H80.1z M80.1-7.2"/>
		<path d="M82.2-6.2h-2.1c-1.2,0-2.1-0.9-2.1-1.9v-12c0-1.1,0.9-1.9,2.1-1.9h10.8c1.2,0,2.1,0.9,2.1,1.9v0.1h-1.3v-0.1
			c0-0.4-0.4-0.7-0.8-0.7H80.1c-0.5,0-0.8,0.3-0.8,0.7v12c0,0.4,0.4,0.7,0.8,0.7h2.1V-6.2z M80.1-21.7c-1,0-1.8,0.7-1.8,1.6v12
			c0,0.9,0.8,1.6,1.8,1.6h1.8v-0.6h-1.8c-0.6,0-1.1-0.5-1.1-1v-12c0-0.6,0.5-1,1.1-1h10.8c0.6,0,1,0.4,1.1,0.9h0.7
			c-0.1-0.8-0.9-1.5-1.8-1.5H80.1z"/>
	</g>
</g>
<path d="M20.4-32L20.4-32H3.6C3.3-32,3-32.3,3-32.6v-4.9c0-0.3,0.3-0.6,0.6-0.6s0.6,0.3,0.6,0.6v4.3h15.6v-4.3
	c0-0.3,0.3-0.6,0.6-0.6s0.6,0.3,0.6,0.6v4.9C21-32.3,20.7-32,20.4-32z M14.6-43.3l-2-2.5v8.8c0,0.3-0.3,0.6-0.6,0.6
	s-0.6-0.3-0.6-0.6v-8.8l-2,2.4c-0.2,0.2-0.6,0.2-0.9,0c-0.2-0.2-0.2-0.6,0-0.9l3-3.7C11.7-48,11.8-48,12-48c0.2,0,0.3,0,0.5,0.2
	l3,3.7c0.2,0.2,0.2,0.6,0,0.9C15.2-43,14.8-43,14.6-43.3L14.6-43.3z"/>
<g>
	<path d="M-13-22c-5,0-9,4-9,9c0,5,4,9,9,9c5,0,9-4,9-9C-4-18-8-22-13-22L-13-22z M-13-5.2c-4.3,0-7.8-3.5-7.8-7.8s3.5-7.8,7.8-7.8
		s7.8,3.5,7.8,7.8S-8.7-5.2-13-5.2L-13-5.2z M-13-5.2"/>
	<path d="M-14.6-16c-0.3,0-0.6,0.3-0.6,0.6v4.9c0,0.3,0.3,0.6,0.6,0.6c0.3,0,0.6-0.3,0.6-0.6v-4.9C-14-15.8-14.3-16-14.6-16
		L-14.6-16z M-11.4-16c-0.3,0-0.6,0.3-0.6,0.6v4.9c0,0.3,0.3,0.6,0.6,0.6c0.3,0,0.6-0.3,0.6-0.6v-4.9C-10.8-15.8-11-16-11.4-16
		L-11.4-16z M-11.4-16"/>
</g>
<g>
	<path d="M-4.7-40.5l-3.4-3.3c-0.3-0.3-0.7-0.3-1,0c-0.3,0.3-0.3,0.7,0,0.9l2.2,2.2h-6.5c-0.4,0-0.7,0.3-0.7,0.7
		c0,0.4,0.3,0.7,0.7,0.7h6.5l-2.2,2.2c-0.3,0.3-0.3,0.7,0,0.9c0.1,0.1,0.3,0.2,0.5,0.2c0.2,0,0.3-0.1,0.5-0.2l3.4-3.3
		c0,0,0-0.1,0.1-0.1C-4.4-39.9-4.4-40.3-4.7-40.5L-4.7-40.5z M-4.7-40.5"/>
	<path d="M-6.5-35.4c-0.4,0-0.7,0.3-0.7,0.7v1.3c0,0.4-0.3,0.7-0.7,0.7h-11.6c-0.4,0-0.7-0.3-0.7-0.7v-13.1c0-0.4,0.3-0.7,0.7-0.7
		h11.6c0.4,0,0.7,0.3,0.7,0.7v1.3c0,0.4,0.3,0.7,0.7,0.7c0.4,0,0.7-0.3,0.7-0.7v-1.3c0-1.1-0.9-2-2-2h-11.6c-1.2,0-2,0.8-2,2v13.1
		c0,1.1,0.9,2,2,2h11.6c1.2,0,2-0.8,2-2v-1.3C-5.9-35.2-6.1-35.4-6.5-35.4L-6.5-35.4z"/>
	<path d="M-6.5-35.4"/>
</g>
<path d="M-62.1-34.9c-0.4,0-0.6-0.3-0.6-0.6v-7.1c0-0.4,0.3-0.6,0.6-0.6c0.4,0,0.6,0.3,0.6,0.6v7.1C-61.4-35.1-61.7-34.9-62.1-34.9
	L-62.1-34.9L-62.1-34.9z M-65.9-34.9c-0.4,0-0.6-0.3-0.6-0.6v-7.1c0-0.4,0.3-0.6,0.6-0.6c0.4,0,0.6,0.3,0.6,0.6v7.1
	C-65.3-35.1-65.6-34.9-65.9-34.9L-65.9-34.9L-65.9-34.9z M-55.6-45.8h-3.2v-1.3c0-1.1-0.9-1.9-1.9-1.9h-6.4c-1.1,0-1.9,0.9-1.9,1.9
	v1.3h-3.2c-0.4,0-0.6,0.3-0.6,0.6s0.3,0.6,0.6,0.6h16.7c0.4,0,0.6-0.3,0.6-0.6S-55.3-45.8-55.6-45.8L-55.6-45.8L-55.6-45.8
	L-55.6-45.8z M-67.9-47.1c0-0.4,0.3-0.6,0.6-0.6h6.4c0.4,0,0.6,0.3,0.6,0.6v1.3h-7.7V-47.1z M-59.5-31h-9c-1.1,0-1.9-0.9-1.9-1.9
	v-9.7c0-0.4,0.3-0.6,0.6-0.6c0.4,0,0.6,0.3,0.6,0.6v9.7c0,0.4,0.3,0.6,0.6,0.6h9c0.4,0,0.6-0.3,0.6-0.6v-9.6c0-0.4,0.3-0.6,0.6-0.6
	c0.4,0,0.6,0.3,0.6,0.6v9.6C-57.6-31.9-58.4-31-59.5-31L-59.5-31L-59.5-31z"/>
<g>
	<path d="M62.1-49c-2.6,0-4.7,2.1-4.7,4.6c0,2.5,2.1,4.6,4.7,4.6c2.6,0,4.7-2.1,4.7-4.6C66.8-46.9,64.7-49,62.1-49L62.1-49z
		 M62.1-49"/>
	<path d="M53-31h18c0-4.5-4-8.2-9-8.2C57-39.2,53-35.5,53-31L53-31z M53-31"/>
</g>
<g>
	<path d="M46-5.6v-4.9c0-0.3-0.3-0.6-0.6-0.6s-0.6,0.3-0.6,0.6v4.3H29.2v-4.3c0-0.3-0.3-0.6-0.6-0.6S28-10.9,28-10.5v4.9
		C28-5.3,28.3-5,28.6-5h16.8l0,0C45.7-5,46-5.3,46-5.6z"/>
	<path d="M39.6-14c0.2-0.2,0.6-0.2,0.9,0c0.2,0.2,0.2,0.6,0,0.9l-3,3.7c-0.1,0.1-0.3,0.2-0.5,0.2c-0.2,0-0.3,0-0.5-0.2l-3-3.7
		c-0.2-0.2-0.2-0.6,0-0.9c0.2-0.2,0.6-0.2,0.9,0l2,2.4v-8.8c0-0.3,0.3-0.6,0.6-0.6s0.6,0.3,0.6,0.6v8.8L39.6-14L39.6-14z"/>
</g>
<g>
	<path fill="#30BF8F" d="M-86.9-76c-0.1,0-8.8,0-8.8,0c-1.4,0-2.5,1.1-2.5,2.5v15c0,1.4,1.1,2.5,2.5,2.5h11.2c1.4,0,2.5-1.1,2.5-2.5
		V-71L-86.9-76z"/>
	<path fill="#68E0B1" d="M-85.6-71c-0.7,0-1.3-0.6-1.3-1.3V-76l5,5H-85.6z"/>
	<g>
		<path fill="#FFFFFF" d="M-91.1-60.2c0,0.3,0.1,0.5,0.4,0.6c0.2,0.1,0.5,0.1,0.7,0c0.2-0.1,0.4-0.4,0.4-0.6c0-0.3-0.1-0.5-0.4-0.6
			c-0.2-0.1-0.5-0.1-0.7,0C-91-60.7-91.1-60.5-91.1-60.2L-91.1-60.2z M-91.1-60.2"/>
		<path fill="#FFFFFF" d="M-90-70.5c-1.8,0-3.2,1.4-3.2,3.2c0,0.4,0.3,0.6,0.6,0.6s0.6-0.3,0.6-0.6c0-1.1,0.9-1.9,1.9-1.9
			s1.9,0.9,1.9,1.9c0,0,0,0,0,0c0,0.7-0.5,1.2-1.2,1.9c-0.7,0.7-1.7,1.6-1.9,3.2c0,0.4,0.2,0.7,0.6,0.7c0,0,0,0,0.1,0
			c0.3,0,0.6-0.2,0.6-0.6c0.1-1.1,0.8-1.7,1.5-2.4c0.7-0.7,1.5-1.5,1.6-2.8c0,0,0,0,0,0c0,0,0,0,0,0C-86.8-69.1-88.2-70.5-90-70.5
			L-90-70.5z M-90-70.5"/>
	</g>
</g>
<g>
	<g>
		<g>
			<path fill="#8281F9" d="M-60.9-76c-0.1,0-8.8,0-8.8,0c-1.4,0-2.5,1.1-2.5,2.5v15c0,1.4,1.1,2.5,2.5,2.5h11.2
				c1.4,0,2.5-1.1,2.5-2.5V-71L-60.9-76z"/>
			<path fill="#AFAFFF" d="M-59.6-71c-0.7,0-1.3-0.6-1.3-1.3V-76l5,5H-59.6z"/>
		</g>
	</g>
	<g>
		<g>
			<path fill="#FFFFFF" d="M-61.1-70l-4.5,1.4c-0.5,0.2-1,0.7-1,1.3v4.7c0,0-0.3-0.2-1-0.1c-1.1,0.2-1.9,1-1.9,1.8
				c0,0.9,0.9,1.4,1.9,1.2c1.1-0.2,1.8-0.9,1.8-1.8V-66c0-0.4,0.5-0.5,0.5-0.5l4-1.2c0,0,0.4-0.1,0.4,0.3v3.8c0,0-0.4-0.2-1.1-0.1
				c-1.1,0.1-1.9,0.9-1.9,1.8c0,0.9,0.9,1.4,1.9,1.3c1.1-0.1,1.9-0.9,1.9-1.8v-6.6C-60.2-69.8-60.6-70.1-61.1-70L-61.1-70z
				 M-61.1-70"/>
		</g>
	</g>
</g>
<g>
	<g>
		<g>
			<path fill="#FFFFFF" d="M-36.1-70l-4.5,1.4c-0.5,0.2-1,0.7-1,1.3v4.7c0,0-0.3-0.2-1-0.1c-1.1,0.2-1.9,1-1.9,1.8
				c0,0.9,0.9,1.4,1.9,1.2c1.1-0.2,1.8-0.9,1.8-1.8V-66c0-0.4,0.5-0.5,0.5-0.5l4-1.2c0,0,0.4-0.1,0.4,0.3v3.8c0,0-0.4-0.2-1.1-0.1
				c-1.1,0.1-1.9,0.9-1.9,1.8c0,0.9,0.9,1.4,1.9,1.3c1.1-0.1,1.9-0.9,1.9-1.8v-6.6C-35.2-69.8-35.6-70.1-36.1-70L-36.1-70z
				 M-36.1-70"/>
		</g>
	</g>
	<g>
		<path fill="#42A0F8" d="M-35.9-76c-0.1,0-8.8,0-8.8,0c-1.4,0-2.5,1.1-2.5,2.5v15c0,1.4,1.1,2.5,2.5,2.5h11.2
			c1.4,0,2.5-1.1,2.5-2.5V-71L-35.9-76z"/>
		<path fill="#7AC5FC" d="M-34.6-71c-0.7,0-1.3-0.6-1.3-1.3V-76l5,5H-34.6z"/>
	</g>
	<g>
		<path fill="#FFFFFF" d="M-33.7-69.1v2h-4v8h-2v-8h-4v-2H-33.7z"/>
	</g>
</g>
<path d="M-13-76c-5.5,0-10,4.5-10,10s4.5,10,10,10s10-4.5,10-10C-3-71.5-7.5-76-13-76L-13-76z M-12.8-73c3.8,0,3.8,2.9,3.8,4.5
	s-1.5,4.6-3.8,4.7c-2.2,0-3.8-3-3.8-4.7C-16.6-70.1-16.6-73-12.8-73L-12.8-73z M-13-56.6c-2.9,0-5.5-1.3-7.2-3.4
	c0.3-0.6,0.6-1.3,1-1.7c0.9-0.7,3.7-2,3.7-2l1.8,3.4l0.3-0.8l-0.5-1l1-1l1,1l-0.4,1.1l0.3,0.8l1.8-3.3c0,0,2.8,1.2,3.7,2
	c0.4,0.3,0.7,0.9,0.9,1.4C-7.3-58-10-56.6-13-56.6L-13-56.6z M-13-56.6"/>
<path d="M90.1-75h-9.2c-0.6,0-1,0.4-1,1v16c0,0.6,0.4,1,1,1h12.3c0.6,0,1-0.4,1-1v-13.1L90.1-75z M82.8-68h8.4v1.4h-8.4V-68z
	 M82.8-64.8h7.4v1.4h-7.4V-64.8z M87.5-60.2h-4.7v-1.4h4.7V-60.2z M92.5-59.5l-0.8-0.9v3.1h-1v-3l-0.9,0.9l-0.7-0.7l2.1-2.2l2.1,2.2
	L92.5-59.5z"/>
<path d="M95.9-53.4L95.9-53.4z"/>
<path d="M121-69.5v10c0,0.6-0.4,1-1,1h-6v-5h2.4l-3.9-3.9l-3.9,3.9h2.5v5h-7c-0.6,0-1-0.4-1-1v-13c0-0.6,0.4-1,1-1h6.8
	c0.3,0,0.6,0.1,0.8,0.4l1.6,2.2c0.2,0.3,0.5,0.4,0.8,0.4h5.9C120.6-70.5,121-70.1,121-69.5z"/>
<path d="M112.5-66.6L112.5-66.6z"/>
<g>
	<path d="M-82.2-23h-15.6c-1.2,0-2.2,1-2.2,2.2v15.6C-100-4-99-3-97.8-3h15.6C-81-3-80-4-80-5.2v-15.6C-80-22-81-23-82.2-23
		L-82.2-23z M-90.5-14.4c-0.3,0.8-0.5,2.1-1,3.1c-0.2,0.6-0.2,0.5-0.4,0.8l0.1,0c1.5-0.4,2.5-0.5,3.5-0.7c-0.2-0.2-0.4-0.3-0.5-0.4
		C-89.4-12.3-89.6-12.5-90.5-14.4L-90.5-14.4z M-83.2-9.7c-0.2,0.2-0.5,0.3-1,0.3c-0.8,0-1.6-0.2-2.7-0.8c-1.9,0.2-3.9,0.4-5.1,0.8
		c-0.1,0-0.1,0-0.2,0.1C-93.6-7-94.6-6-95.5-6c-0.3,0-0.7-0.2-0.8-0.3l-0.2-0.2l-0.1-0.1c-0.1-0.2-0.1-0.4-0.1-0.6
		c0.1-0.6,0.8-1.5,2.1-2.4c0.2-0.2,0.7-0.4,1.1-0.6c0.3-0.5,0.5-0.9,0.9-1.8c0.5-1.1,0.9-2.5,1.2-3.5v0c-0.4-1.3-0.7-2.3-0.2-3.7
		c0.1-0.4,0.5-0.9,0.9-0.9h0.3c0.3,0,0.5,0.1,0.7,0.3c0.7,0.7,0.4,2.6,0,4.1c0,0.1,0,0.1,0,0.2c0.4,1.3,1.1,2.5,1.8,3.1
		c0.3,0.2,0.6,0.5,0.9,0.7c0.5-0.1,0.9-0.1,1.4-0.1c1.4,0,2.2,0.2,2.5,0.8c0.1,0.2,0.2,0.4,0.1,0.6C-82.9-10.2-83-9.9-83.2-9.7
		L-83.2-9.7z M-83.9-10.7c-0.1-0.1-0.4-0.4-2-0.4c-0.1,0-0.3,0-0.4,0.1c0.8,0.4,1.6,0.6,2.1,0.6c0.1,0,0.1,0,0.2,0h0
		c0.1,0,0.1,0,0.1-0.1C-83.8-10.6-83.9-10.6-83.9-10.7L-83.9-10.7z M-93.7-9.1c-0.2,0.1-0.4,0.3-0.5,0.3C-95-8-95.5-7.3-95.6-6.8
		C-95.1-7-94.4-7.7-93.7-9.1L-93.7-9.1z M-90.5-16.6L-90.5-16.6c0.1-0.4,0.2-0.8,0.3-1l0-0.2c0.1-0.6,0.1-1-0.1-1.3l-0.2-0.1
		c0,0-0.1,0.1-0.1,0.1C-90.8-18.5-90.8-17.6-90.5-16.6L-90.5-16.6z M-90.5-16.6"/>
</g>
<g>
	<path d="M-57.7-23H-66c-0.5,0-1,0.4-1,1v3.3c0,0.6-0.4,1-1,1h-3.3c-0.6,0-1,0.4-1,1V-5c0,1.1,0.9,2,2,2h12.7c1.1,0,2-0.9,2-2v-16
		C-55.7-22.1-56.6-23-57.7-23L-57.7-23z M-59.8-8h-8.3c-0.3,0-0.5-0.2-0.5-0.5c0-0.3,0.2-0.5,0.5-0.5h8.3c0.3,0,0.5,0.2,0.5,0.5
		C-59.3-8.2-59.6-8-59.8-8L-59.8-8z M-59.8-11.3h-8.3c-0.3,0-0.5-0.2-0.5-0.5s0.2-0.5,0.5-0.5h8.3c0.3,0,0.5,0.2,0.5,0.5
		S-59.6-11.3-59.8-11.3L-59.8-11.3z M-59.8-14.7h-5.3c-0.3,0-0.5-0.2-0.5-0.5s0.2-0.5,0.5-0.5h5.3c0.3,0,0.5,0.2,0.5,0.5
		S-59.6-14.7-59.8-14.7L-59.8-14.7z M-71.6-18.6h2.6c0.6,0,1-0.4,1-1v-2.7c0-0.4-0.2-0.5-0.5-0.2l-3.3,3.4
		C-72.1-18.9-72-18.6-71.6-18.6L-71.6-18.6z M-71.6-18.6"/>
</g>
<g>
	<g>
		<path d="M-29.3-13.8c0,0-4,2.6-7,6.8L-39-9.4l-1.2,1.1l4.7,5.3c0,0,2.2-5.9,6.5-10.1L-29.3-13.8z M-49-23h2.8v2.4H-49V-23z
			 M-44.6-23h11.1v2.4h-11.1V-23z M-49-15.8h2.8v2.4H-49V-15.8z M-44.6-15.8h11.1v2.4h-11.1V-15.8z M-49-8.7h2.8v2.4H-49V-8.7z
			 M-44.6-8.7h3.2v2.4h-3.2V-8.7z M-44.6-8.7"/>
	</g>
</g>
<g>
	<g>
		<g>
			<path d="M140.2-57.3l-0.2-0.1c-1.7-1.2-4.4-1.2-6.1,0l-0.2,0.1l-0.2-0.1c-0.8-0.3-1.6-0.8-2.3-1.4l-0.2-0.1l0-0.2
				c0.1-1-0.2-2.1-0.7-3.1c-0.5-0.9-1.4-1.7-2.3-2.2l-0.2-0.1l0-0.2c-0.1-0.4-0.1-0.9-0.1-1.3c0-0.4,0-0.9,0.1-1.3l0-0.2l0.2-0.1
				c1-0.4,1.8-1.2,2.3-2.2c0.5-0.9,0.8-2,0.7-3.1l0-0.2l0.2-0.1c0.7-0.6,1.5-1,2.3-1.4l0.2-0.1l0.2,0.1c1.7,1.2,4.4,1.2,6.1,0
				l0.2-0.1l0.2,0.1c0.8,0.3,1.6,0.8,2.3,1.4l0.2,0.1l0,0.2c-0.1,1,0.2,2.1,0.7,3.1c0.5,0.9,1.4,1.7,2.3,2.2l0.2,0.1l0,0.2
				c0.1,0.5,0.1,0.9,0.1,1.3c0,0.4,0,0.9-0.1,1.3l0,0.2l-0.2,0.1c-1,0.4-1.8,1.2-2.3,2.2c-0.5,0.9-0.8,2-0.7,3.1l0,0.2l-0.2,0.1
				c-0.7,0.6-1.5,1-2.3,1.3L140.2-57.3z M131.9-59.3c0.6,0.4,1.1,0.8,1.8,1c1.9-1.2,4.7-1.2,6.6,0c0.6-0.3,1.2-0.6,1.8-1
				c0-1.1,0.2-2.3,0.8-3.3c0.6-1,1.5-1.9,2.5-2.4c0-0.3,0.1-0.7,0.1-1c0-0.3,0-0.7-0.1-1c-1-0.5-1.9-1.4-2.5-2.4
				c-0.6-1-0.9-2.2-0.8-3.3c-0.6-0.4-1.1-0.8-1.8-1c-1.9,1.2-4.7,1.2-6.6,0c-0.6,0.3-1.2,0.6-1.8,1c0,1.1-0.2,2.3-0.8,3.3
				c-0.6,1-1.5,1.9-2.5,2.4c0,0.3-0.1,0.7-0.1,1c0,0.3,0,0.7,0.1,1c1,0.5,1.9,1.4,2.5,2.4C131.7-61.6,132-60.4,131.9-59.3z"/>
			<path d="M140.2-57l-0.3-0.2c-0.8-0.5-1.8-0.8-2.9-0.8s-2.1,0.3-2.9,0.8l-0.3,0.2l-0.3-0.1c-0.9-0.3-1.7-0.8-2.4-1.4l-0.3-0.2
				l0-0.4c0.1-1-0.2-2-0.7-2.9c-0.5-0.9-1.3-1.6-2.2-2.1l-0.3-0.1l-0.1-0.4c-0.1-0.5-0.1-0.9-0.1-1.4s0-0.9,0.1-1.4l0.1-0.3l0.3-0.1
				c0.9-0.4,1.7-1.2,2.2-2.1c0.5-0.9,0.8-1.9,0.7-2.9l0-0.4l0.3-0.2c0.7-0.6,1.5-1.1,2.4-1.4l0.3-0.1l0.3,0.2
				c0.8,0.5,1.8,0.8,2.9,0.8s2.1-0.3,2.9-0.8l0.3-0.2l0.3,0.1c0.9,0.3,1.7,0.8,2.4,1.4l0.3,0.2l0,0.4c-0.1,1,0.2,2,0.7,2.9
				c0.5,0.9,1.3,1.6,2.2,2.1l0.3,0.1l0.1,0.3c0.1,0.5,0.1,0.9,0.1,1.4c0,0.4,0,0.9-0.1,1.4l-0.1,0.3l-0.3,0.2
				c-0.9,0.4-1.7,1.2-2.2,2.1c-0.5,0.9-0.8,1.9-0.7,2.9l0,0.4l-0.3,0.2c-0.7,0.6-1.5,1-2.4,1.4L140.2-57z M137-58.6
				c1.2,0,2.3,0.3,3.2,0.9l0.1,0l0.1,0c0.8-0.3,1.6-0.8,2.3-1.3l0.1,0l0-0.1c-0.1-1.1,0.2-2.2,0.7-3.2c0.6-1,1.4-1.8,2.4-2.3l0.1,0
				l0-0.1c0.1-0.4,0.1-0.9,0.1-1.3c0-0.4,0-0.9-0.1-1.3l0-0.1l-0.1,0c-1-0.5-1.9-1.3-2.4-2.3c-0.6-1-0.8-2.1-0.7-3.2l0-0.1l-0.1,0
				c-0.7-0.6-1.5-1-2.3-1.3l-0.1,0l-0.1,0c-0.9,0.6-2,0.9-3.2,0.9s-2.3-0.3-3.2-0.9l-0.1,0l-0.1,0c-0.8,0.3-1.6,0.8-2.3,1.3l-0.1,0
				l0,0.1c0.1,1.1-0.2,2.2-0.7,3.2c-0.6,1-1.4,1.8-2.4,2.3l-0.1,0l0,0.1c-0.1,0.4-0.1,0.9-0.1,1.3c0,0.4,0,0.9,0.1,1.3l0,0.1l0.1,0
				c1,0.5,1.9,1.3,2.4,2.3c0.6,1,0.8,2.1,0.7,3.2l0,0.1l0.1,0c0.7,0.6,1.5,1,2.3,1.3l0.1,0l0.1,0C134.7-58.3,135.8-58.6,137-58.6z
				 M140.3-58l-0.1-0.1c-0.9-0.5-2-0.9-3.2-0.9s-2.3,0.3-3.2,0.9l-0.1,0.1l-0.1-0.1c-0.6-0.3-1.3-0.6-1.8-1.1l-0.1-0.1l0-0.1
				c0-1.1-0.2-2.2-0.8-3.2c-0.6-1-1.4-1.8-2.4-2.3l-0.1-0.1l0-0.1c0-0.4-0.1-0.7-0.1-1c0-0.3,0-0.7,0.1-1l0-0.1l0.1-0.1
				c1-0.5,1.8-1.3,2.4-2.3c0.6-1,0.8-2.1,0.8-3.2l0-0.1l0.1-0.1c0.6-0.4,1.2-0.8,1.8-1.1l0.1-0.1l0.1,0.1c0.9,0.5,2,0.8,3.2,0.8
				s2.3-0.3,3.2-0.8l0.1-0.1l0.1,0.1c0.6,0.3,1.3,0.6,1.8,1.1l0.1,0.1l0,0.1c0,1.1,0.2,2.2,0.8,3.2c0.6,1,1.4,1.8,2.4,2.3l0.1,0.1
				l0,0.1c0,0.4,0.1,0.7,0.1,1c0,0.3,0,0.7-0.1,1l0,0.1l-0.1,0.1c-1,0.5-1.8,1.3-2.4,2.3c-0.6,1-0.8,2.1-0.8,3.2l0,0.1l-0.1,0.1
				c-0.6,0.4-1.2,0.8-1.8,1.1L140.3-58z M132.2-59.4c0.5,0.3,1,0.6,1.5,0.9c0.9-0.6,2.1-0.9,3.3-0.9s2.4,0.3,3.3,0.9
				c0.5-0.2,1-0.5,1.5-0.9c0-1.1,0.3-2.3,0.9-3.3c0.6-1,1.5-1.9,2.5-2.4c0-0.3,0-0.6,0-0.9c0-0.3,0-0.6,0-0.9
				c-1-0.6-1.9-1.4-2.5-2.4c-0.6-1-0.9-2.2-0.9-3.3c-0.5-0.3-1-0.6-1.5-0.9c-0.9,0.6-2.1,0.9-3.3,0.9s-2.4-0.3-3.3-0.9
				c-0.5,0.2-1,0.5-1.5,0.9c0,1.1-0.3,2.3-0.9,3.3c-0.6,1-1.5,1.9-2.5,2.4c0,0.3,0,0.6,0,0.9c0,0.3,0,0.6,0,0.9
				c1,0.6,1.9,1.4,2.5,2.4C131.9-61.7,132.2-60.5,132.2-59.4z"/>
		</g>
	</g>
	<g>
		<g>
			<path d="M136.8-62.7c-1.8,0-3.3-1.5-3.3-3.3c0-1.8,1.5-3.3,3.3-3.3c1.8,0,3.3,1.5,3.3,3.3C140.2-64.2,138.7-62.7,136.8-62.7z
				 M136.8-68.5c-1.4,0-2.5,1.1-2.5,2.5c0,1.4,1.1,2.5,2.5,2.5c1.4,0,2.5-1.1,2.5-2.5C139.4-67.4,138.2-68.5,136.8-68.5z"/>
			<path d="M136.8-62.4c-2,0-3.6-1.6-3.6-3.6c0-2,1.6-3.6,3.6-3.6c2,0,3.6,1.6,3.6,3.6C140.4-64,138.8-62.4,136.8-62.4z M136.8-69.1
				c-1.7,0-3.1,1.4-3.1,3.1c0,1.7,1.4,3.1,3.1,3.1c1.7,0,3.1-1.4,3.1-3.1C139.9-67.7,138.5-69.1,136.8-69.1z M136.8-63.2
				c-1.5,0-2.8-1.3-2.8-2.8s1.3-2.8,2.8-2.8c1.5,0,2.8,1.3,2.8,2.8S138.4-63.2,136.8-63.2z M136.8-68.3c-1.3,0-2.3,1-2.3,2.3
				s1,2.3,2.3,2.3s2.3-1,2.3-2.3S138.1-68.3,136.8-68.3z"/>
		</g>
	</g>
</g>
<path d="M103-4h18v-18L103-4z M120.2-12.5L113.7-6c-0.1,0.1-0.3,0.2-0.5,0.2c-0.2,0-0.3-0.1-0.5-0.2L110-8.7
	c-0.1-0.1-0.2-0.3-0.2-0.5c0-0.2,0.1-0.3,0.2-0.5c0.3-0.3,0.7-0.3,0.9,0l2.2,2.2l6-6c0.3-0.3,0.7-0.3,0.9,0
	C120.4-13.2,120.4-12.8,120.2-12.5z"/>
<g>
	<g>
		<g>
			<path fill="#108CEE" d="M-13,11.3c-0.9,0-1.8-0.2-2.6-0.7c-1.6-0.9-2.6-2.6-2.6-4.4c0-2.8,2.3-5.1,5.1-5.1c2.8,0,5.1,2.3,5.1,5.1
				c0,1.8-1,3.5-2.6,4.4C-11.3,11-12.1,11.3-13,11.3z M-13,1.8c-2.4,0-4.3,1.9-4.3,4.3c0,1.5,0.8,3,2.1,3.7c0.7,0.4,1.4,0.6,2.1,0.6
				c0.8,0,1.5-0.2,2.1-0.6c1.3-0.8,2.1-2.2,2.1-3.7C-8.8,3.8-10.7,1.8-13,1.8z"/>
			<path fill="#108CEE" d="M-13,11.4c-0.9,0-1.8-0.2-2.6-0.7c-1.6-0.9-2.6-2.7-2.6-4.6c0-2.9,2.4-5.3,5.3-5.3s5.3,2.4,5.3,5.3
				c0,1.9-1,3.6-2.6,4.6C-11.2,11.2-12.1,11.4-13,11.4z M-13,1.2c-2.8,0-5,2.2-5,5c0,1.8,1,3.4,2.5,4.3c1.5,0.9,3.5,0.9,5,0
				C-9,9.6-8.1,7.9-8.1,6.1C-8.1,3.4-10.3,1.2-13,1.2z M-13,10.6c-0.8,0-1.5-0.2-2.2-0.6c-1.4-0.8-2.2-2.3-2.2-3.8
				c0-2.4,2-4.4,4.4-4.4s4.4,2,4.4,4.4c0,1.6-0.9,3.1-2.2,3.8C-11.5,10.4-12.3,10.6-13,10.6z M-13,2c-2.3,0-4.1,1.9-4.1,4.1
				c0,1.5,0.8,2.8,2.1,3.6c1.3,0.7,2.9,0.7,4.1,0C-9.7,9-8.9,7.6-8.9,6.1C-8.9,3.9-10.8,2-13,2z"/>
		</g>
	</g>
	<g>
		<g>
			<path fill="#108CEE" d="M-4,23H-22c-0.7,0-1.3-0.6-1.3-1.3v-0.1l3-8.5c0-0.7,0.6-1.3,1.3-1.3h3.1l1.3,5.1l0.3-2.7l-0.6-1.3v-0.1
				c0-0.5,0.5-1,1.1-1h1.3c0.6,0,1.1,0.4,1.1,1v0.1l-0.6,1.3l0.2,2.4l1.2-4.9H-7c0.7,0,1.3,0.6,1.3,1.3l3,8.6v0.1
				C-2.7,22.4-3.3,23-4,23z M-22.4,21.7c0,0.2,0.2,0.4,0.5,0.4H-4c0.2,0,0.4-0.2,0.5-0.4l-2.9-8.5l0-0.1c0-0.3-0.2-0.5-0.5-0.5h-2.7
				l-2.3,7.9l-0.7-6.4l0.6-1.3c0,0-0.1-0.1-0.2-0.1h-1.3c-0.1,0-0.2,0-0.2,0.1l0.6,1.3l-0.8,6.7l-2.3-8.1H-19
				c-0.3,0-0.5,0.2-0.5,0.5v0.1L-22.4,21.7z"/>
			<path fill="#108CEE" d="M-4,23.2H-22c-0.8,0-1.5-0.7-1.5-1.5l0-0.1l2.9-8.5c0.1-0.8,0.7-1.4,1.5-1.4h3.2l1.1,4.4l0.2-1.8
				l-0.6-1.3v-0.1c0-0.6,0.6-1.1,1.3-1.1h1.3c0.7,0,1.3,0.5,1.3,1.1l0,0.1l-0.5,1.3l0.2,1.5l1.1-4.2H-7c0.8,0,1.4,0.6,1.5,1.4l3,8.6
				v0.1C-2.6,22.5-3.2,23.2-4,23.2z M-23.1,21.6L-23.1,21.6c0,0.7,0.5,1.2,1.2,1.2H-4c0.6,0,1.2-0.5,1.2-1.2v0l-3-8.6
				c0-0.6-0.5-1.1-1.2-1.1h-3.3l-1.4,5.6l-0.3-3.3l0,0l0.5-1.3v-0.1c0-0.5-0.4-0.8-1-0.8h-1.3c-0.5,0-1,0.4-1,0.8v0.1l0.6,1.3
				l-0.4,3.6l-1.5-5.8h-3c-0.6,0-1.1,0.5-1.2,1.1l0,0L-23.1,21.6z M-4,22.3H-22c-0.3,0-0.6-0.2-0.6-0.6l0,0l0,0l2.9-8.6
				c0-0.3,0.3-0.6,0.6-0.6h2.6l2.2,7.5l0.7-5.9l-0.6-1.3l0.1-0.1c0.1-0.1,0.2-0.2,0.4-0.2h1.3c0.2,0,0.3,0.1,0.4,0.2l0.1,0.1
				l-0.6,1.4l0.7,5.7l2.1-7.3H-7c0.3,0,0.6,0.3,0.6,0.6v0l3,8.5l0,0C-3.5,22.1-3.7,22.3-4,22.3z M-22.3,21.7c0,0.2,0.2,0.3,0.3,0.3
				H-4c0.1,0,0.3-0.1,0.3-0.3l-2.9-8.5v-0.1c0-0.2-0.1-0.3-0.3-0.3h-2.6l-2.4,8.5l-0.8-7.2l0.5-1.2c0,0,0,0-0.1,0h-1.3c0,0,0,0,0,0
				l0.5,1.2l0,0l-0.9,7.4l-2.5-8.7H-19c-0.2,0-0.3,0.2-0.3,0.3l0,0.1L-22.3,21.7z"/>
		</g>
	</g>
</g>
<g>
	<polygon fill="#F9CF1C" points="-9,17.7 -9.3,19.3 -8,18.5 -8,18.5 -6.6,19.3 -6.9,17.7 -6.9,17.7 -5.8,16.6 -7.3,16.4 -7.3,16.4 
		-8,15 -8.6,16.4 -8.6,16.4 -10.1,16.6 -9,17.7 -9,17.7 	"/>
</g>
<g>
	<g>
		<path fill="#108CEE" d="M20.9,10.8c-1,0-1.8,0.7-2,1.6h-0.7V6.7h0.7c0.3,1,1.2,1.7,2.3,1.6c1-0.1,1.8-1,1.8-2.1
			c0-1.1-0.8-1.9-1.8-2.1c-1-0.1-2,0.5-2.3,1.6h-1.1c-0.8-1.3-1.8-2.3-2.9-3c-1-0.7-2.2-1.1-3.5-1.2l0,0c0,0,0,0,0,0
			c-0.3,0-0.6,0-0.8,0c-1.6,0-3,0.5-4.2,1.4c-1.1,0.9-2,2.2-2.6,4l0,0l0,0c-0.6,3-1.4,4.9-2.2,5.8C1.3,13,1.1,13.3,1,13.6
			c0,0.2,0,0.5,0.2,0.7c0.3,0.4,0.8,0.6,1.3,0.6c0.1,0,0.3,0.1,0.4,0.2c0.1,0.1,0.2,0.3,0.3,0.5c0.1,0.4,0.2,1.1,0.2,2
			c0,0.4,0.2,0.8,0.4,1C4.1,18.9,4.6,19,5.2,19C6,19,6.6,19.2,7,19.5c0.3,0.3,0.4,0.7,0.4,1.2v1.7l8.1,0.1v-4.1
			c0.1-0.1,0.2-0.3,0.3-0.4c0,0,0,0,0,0l0,0c0.7-1,1.3-1.8,1.7-2.5c0.2-0.4,0.4-0.7,0.5-1c0-0.1,0.1-0.2,0.1-0.3c0-0.1,0-0.2,0-0.3
			v-0.6h0.7c0.3,1.1,1.3,1.7,2.4,1.5c1.1-0.2,1.8-1.2,1.7-2.2C22.9,11.6,22,10.8,20.9,10.8L20.9,10.8z M17.2,12.4H14v-2.3h0v-1h0
			V6.7h3.2L17.2,12.4L17.2,12.4z M20.9,5.1c0.4,0,0.8,0.3,1,0.6C22,6.1,22,6.6,21.7,6.9c-0.3,0.3-0.8,0.4-1.1,0.2
			c-0.4-0.2-0.7-0.5-0.7-1C19.9,5.6,20.3,5.1,20.9,5.1L20.9,5.1z M16.5,5.6H13v0h0v3.4H9.6C9.4,8.5,8.9,8,8.4,7.8
			C8.4,6.9,8.6,6,9.1,5.3c0.5-1,1.4-1.9,2.6-2.7C13.6,2.8,15.2,3.8,16.5,5.6L16.5,5.6z M7.6,10.8c-0.4,0-0.8-0.3-1-0.6
			C6.5,9.8,6.6,9.3,6.9,9C7.2,8.7,7.6,8.6,8,8.8c0.4,0.2,0.7,0.5,0.7,1C8.7,10.3,8.2,10.8,7.6,10.8L7.6,10.8z M14.7,17.9l-0.2,0.3
			v3.3l-6-0.1v-0.7c0-0.8-0.3-1.5-0.8-2c-0.6-0.6-1.4-0.9-2.5-0.9c-0.5,0-0.7-0.1-0.7-0.1c0,0,0-0.2,0-0.2c0-1-0.1-1.8-0.3-2.4
			c-0.1-0.4-0.3-0.7-0.5-0.9c-0.3-0.3-0.7-0.5-1.1-0.5c-0.2,0-0.3-0.1-0.4-0.1c0-0.1,0.1-0.2,0.2-0.3c1-1.1,1.9-3.1,2.5-6.3
			C5.4,5.5,6.1,4.4,7,3.6c0.8-0.7,1.8-1,2.9-1.1C8.3,3.9,7.5,5.7,7.3,7.7C6.2,7.8,5.5,8.8,5.6,9.9c0.1,1.1,1,1.9,2.1,1.9
			c0,0,0.1,0,0.1,0c0,0.1,0.1,0.2,0.1,0.4c0.3,1,0.7,1.8,1.3,2.5C10.2,16,12,17,14.7,17.9C14.7,17.8,14.7,17.9,14.7,17.9L14.7,17.9z
			 M17.2,14C17.2,14,17.2,14,17.2,14c0,0.1-0.1,0.2-0.1,0.2c-0.1,0.2-0.2,0.5-0.4,0.8c-0.3,0.5-0.7,1.1-1.2,1.9
			c-2.7-0.8-4.4-1.7-5.4-2.9c-0.6-0.7-0.9-1.5-1.2-2.5c0.5-0.3,0.8-0.8,0.9-1.4H13v3.3h1v0h3.2L17.2,14L17.2,14z M20.9,13.9
			c-0.4,0-0.8-0.3-1-0.6c-0.2-0.4-0.1-0.8,0.2-1.1c0.3-0.3,0.8-0.4,1.1-0.2c0.4,0.2,0.7,0.5,0.7,1C22,13.5,21.5,13.9,20.9,13.9
			L20.9,13.9z M20.9,13.9"/>
		<path fill="#108CEE" d="M15.7,22.7l-0.2,0l-8.2-0.1v-1.9c0-0.5-0.1-0.9-0.4-1.1c-0.3-0.3-0.9-0.5-1.7-0.5c-0.6,0-1.1-0.1-1.4-0.4
			c-0.3-0.2-0.5-0.6-0.5-1.1c0-0.9-0.1-1.5-0.2-2c-0.1-0.2-0.1-0.4-0.2-0.4c-0.1-0.1-0.2-0.1-0.3-0.1c-0.5,0-1.1-0.3-1.4-0.7
			c-0.2-0.2-0.2-0.5-0.2-0.8c0.1-0.3,0.3-0.7,0.6-1c0.9-0.9,1.6-2.8,2.2-5.7l0,0c0.6-1.8,1.5-3.2,2.6-4.1c1.1-0.9,2.6-1.4,4.3-1.4
			c0.3,0,0.5,0,0.8,0l0.1,0l0,0c1.3,0.1,2.5,0.5,3.5,1.2c1.1,0.7,2,1.7,2.9,3h0.9c0.3-1,1.3-1.7,2.4-1.6c1.1,0.1,2,1.1,2,2.2
			s-0.8,2.1-2,2.2c-1.1,0.1-2.1-0.5-2.4-1.6h-0.4v5.4h0.4c0.3-0.9,1.2-1.6,2.1-1.6c1.2,0,2.1,0.9,2.2,2.1c0.1,1.2-0.7,2.2-1.9,2.4
			c-0.1,0-0.3,0-0.4,0l0,0c-1,0-1.8-0.6-2.1-1.6h-0.4V14c0,0.1,0,0.2,0,0.3c0,0.1-0.1,0.2-0.1,0.4c-0.1,0.3-0.3,0.6-0.5,1
			c-0.4,0.6-1,1.5-1.7,2.5l0,0.2l-0.1,0c-0.1,0.1-0.1,0.2-0.2,0.3V22.7z M7.6,22.3l7.8,0.1v-4l0,0c0.1-0.1,0.2-0.2,0.3-0.4l0.1-0.1
			l0,0c0.7-1,1.3-1.8,1.6-2.4c0.2-0.4,0.4-0.7,0.5-0.9c0-0.1,0.1-0.2,0.1-0.3c0-0.1,0-0.2,0-0.2v-0.7H19l0,0.1
			c0.2,0.9,1,1.4,1.9,1.4l0,0c0.1,0,0.2,0,0.3,0c1-0.2,1.7-1.1,1.6-2.1c-0.1-1-0.9-1.8-1.9-1.8c-0.9,0-1.7,0.6-1.9,1.5l0,0.1H18v-6
			H19l0,0.1c0.2,0.9,1.1,1.6,2.1,1.4c1-0.1,1.7-1,1.7-1.9s-0.7-1.8-1.7-1.9c-1-0.1-1.9,0.5-2.1,1.4l0,0.1h-1.3l0-0.1
			c-0.8-1.3-1.7-2.3-2.8-2.9c-1-0.6-2.2-1-3.4-1.2h0c-2-0.2-3.6,0.3-4.9,1.3C5.4,3.8,4.6,5.1,4,6.8l0,0l0,0c-0.6,3-1.4,5-2.3,5.9
			c-0.3,0.3-0.5,0.6-0.5,0.8c0,0.2,0,0.4,0.1,0.6c0.2,0.3,0.7,0.6,1.2,0.6c0.2,0,0.4,0.1,0.5,0.2c0.1,0.1,0.2,0.3,0.3,0.6
			c0.2,0.5,0.2,1.2,0.2,2.1c0,0.4,0.1,0.7,0.4,0.9c0.3,0.2,0.7,0.3,1.3,0.3c0.9,0,1.5,0.2,1.9,0.6c0.3,0.3,0.5,0.8,0.5,1.3V22.3z
			 M14.6,21.7l-0.2,0l-6.1-0.1v-0.8c0-0.8-0.2-1.4-0.7-1.9c-0.5-0.5-1.4-0.8-2.4-0.8c-0.5,0-0.7-0.1-0.8-0.2c0,0-0.1-0.1-0.1-0.3
			c0-1-0.1-1.8-0.3-2.3c-0.1-0.4-0.3-0.6-0.5-0.9c-0.3-0.3-0.6-0.4-1-0.4v-0.2l0,0.2c-0.2,0-0.4-0.1-0.5-0.2l-0.1-0.1l0-0.1
			c0-0.1,0.1-0.2,0.3-0.4c1-1,1.8-3.1,2.5-6.2C5.2,5.5,6,4.3,7,3.5c0.8-0.7,1.8-1,3-1.1l0.5,0l-0.3,0.3C8.5,4,7.6,5.7,7.5,7.7l0,0.1
			l-0.1,0C6.3,8,5.6,8.9,5.7,9.9c0.1,1,0.9,1.8,1.9,1.8c0,0,0.1,0,0.1,0l0.1,0l0.1,0.1C7.9,11.9,8,12,8,12.2c0.3,1,0.7,1.8,1.3,2.4
			c1.1,1.3,2.8,2.3,5.5,3.1l0.2,0.1l-0.2,0.2c0,0,0,0,0,0l-0.2,0.3V21.7z M8.6,21.3l5.7,0.1v-3.2l0.2-0.2c-2.6-0.8-4.4-1.8-5.4-3.1
			c-0.6-0.7-1-1.5-1.3-2.5c0-0.1,0-0.2-0.1-0.2c0,0,0,0,0,0c-1.2,0-2.1-0.9-2.2-2.1C5.3,8.8,6.1,7.8,7.2,7.5c0.2-1.9,1-3.5,2.4-4.9
			c-0.9,0.1-1.7,0.5-2.4,1C6.2,4.5,5.5,5.6,5,7.1c-0.6,3.2-1.5,5.3-2.6,6.4c-0.1,0.1-0.1,0.1-0.1,0.2c0.1,0,0.1,0,0.2,0h0
			c0.5,0,0.9,0.2,1.2,0.5c0.2,0.2,0.4,0.6,0.6,1c0.2,0.6,0.3,1.4,0.3,2.4c0,0,0,0.1,0,0.1c0.1,0,0.2,0.1,0.6,0.1
			c1.1,0,2,0.3,2.6,0.9c0.5,0.5,0.8,1.2,0.8,2.1V21.3z M15.4,17.1l-0.1,0c-2.8-0.8-4.5-1.7-5.5-2.9c-0.6-0.7-1-1.5-1.2-2.6l0-0.1
			l0.1-0.1c0.5-0.3,0.8-0.8,0.9-1.3l0-0.1h3.5v3.3l4.2,0l0,0.8c0,0.1,0,0.1-0.1,0.2c-0.1,0.2-0.2,0.5-0.5,0.8
			C16.5,15.6,16,16.3,15.4,17.1L15.4,17.1z M8.9,11.6c0.2,1,0.6,1.7,1.1,2.3c1,1.2,2.6,2,5.3,2.8c0.5-0.7,0.9-1.3,1.2-1.8
			c0.2-0.3,0.3-0.6,0.4-0.8c0-0.1,0-0.1,0.1-0.2v-0.4l-4.2,0v-3.3h-3C9.7,10.8,9.4,11.3,8.9,11.6z M20.9,14.1
			c-0.5,0-0.9-0.3-1.1-0.7s-0.1-1,0.3-1.3c0.3-0.3,0.9-0.4,1.3-0.3c0.5,0.2,0.7,0.6,0.7,1.1c0,0.3-0.1,0.6-0.4,0.8
			S21.2,14.1,20.9,14.1z M20.9,12c-0.2,0-0.5,0.1-0.6,0.3c-0.3,0.3-0.3,0.6-0.2,1c0.1,0.3,0.5,0.6,0.8,0.6c0.2,0,0.5-0.1,0.6-0.3
			s0.3-0.4,0.3-0.6c0-0.4-0.2-0.7-0.6-0.8C21.1,12,21,12,20.9,12z M17.2,12.5h-3.3v-6h3.5v5.9h-0.1V12.5z M14.1,12.2H17V6.8h-2.9
			V12.2z M7.6,10.9c-0.5,0-0.9-0.3-1.1-0.7c-0.2-0.5-0.1-1,0.3-1.3c0.3-0.3,0.9-0.4,1.3-0.3c0.5,0.2,0.7,0.6,0.7,1.1
			C8.8,10.4,8.3,10.9,7.6,10.9z M7.6,8.8C7.4,8.8,7.2,8.9,7,9.1c-0.3,0.3-0.3,0.6-0.2,1s0.5,0.6,0.8,0.6c0.5,0,0.9-0.4,0.9-0.9
			c0-0.4-0.2-0.7-0.6-0.8C7.9,8.9,7.8,8.8,7.6,8.8z M13.1,9.2H9.5l0-0.1c-0.2-0.6-0.6-1-1.2-1.2l-0.1,0l0-0.1C8.3,6.8,8.5,6,8.9,5.2
			c0.6-1,1.4-2,2.6-2.8l0,0l0.1,0c2,0.3,3.6,1.3,5,3.1l0.2,0.2h-3.7V9.2z M9.7,8.9h3.1l0-3.4l0.2,0h3.2C15,3.9,13.5,3,11.7,2.7
			c-1.1,0.8-2,1.7-2.5,2.6C8.8,6.1,8.6,6.8,8.5,7.7C9.1,7.9,9.5,8.4,9.7,8.9z M20.9,7.3c-0.2,0-0.3,0-0.5-0.1
			c-0.5-0.2-0.7-0.6-0.7-1.1c0-0.7,0.5-1.2,1.2-1.2h0c0.5,0,0.9,0.3,1.1,0.7s0.1,1-0.3,1.3C21.5,7.2,21.2,7.3,20.9,7.3z M20.9,5.1
			l0,0.2c-0.5,0-0.9,0.4-0.9,0.9c0,0.4,0.2,0.7,0.6,0.8c0.3,0.1,0.7,0.1,1-0.2c0.3-0.3,0.3-0.6,0.2-1c-0.1-0.3-0.5-0.6-0.8-0.6V5.1z
			"/>
	</g>
	<path fill="#F9CF1C" d="M6.3,9.7c0,0.7,0.6,1.3,1.3,1.3c0.7,0,1.3-0.6,1.3-1.3c0-0.7-0.6-1.3-1.3-1.3C6.9,8.4,6.3,9,6.3,9.7
		L6.3,9.7z M6.3,9.7"/>
	<path fill="#F9CF1C" d="M19.6,6.1c0,0.7,0.6,1.3,1.3,1.3c0.7,0,1.3-0.6,1.3-1.3c0-0.7-0.6-1.3-1.3-1.3C20.2,4.8,19.6,5.4,19.6,6.1
		L19.6,6.1z M19.6,6.1"/>
	<path fill="#F9CF1C" d="M19.6,12.9c0,0.7,0.6,1.3,1.3,1.3c0.7,0,1.3-0.6,1.3-1.3c0-0.7-0.6-1.3-1.3-1.3
		C20.2,11.6,19.6,12.1,19.6,12.9L19.6,12.9z M19.6,12.9"/>
</g>
</svg>
