<?xml version="1.0" encoding="utf-8"?>
<!-- Generator: Adobe Illustrator 18.0.0, SVG Export Plug-In . SVG Version: 6.00 Build 0)  -->
<!DOCTYPE svg PUBLIC "-//W3C//DTD SVG 1.1//EN" "http://www.w3.org/Graphics/SVG/1.1/DTD/svg11.dtd">
<svg version="1.1" id="图层_1" xmlns="http://www.w3.org/2000/svg" xmlns:xlink="http://www.w3.org/1999/xlink" x="0px" y="0px"
	 viewBox="0 0 24 24" enable-background="new 0 0 24 24" xml:space="preserve">
<rect x="1" y="1" display="none" width="22" height="22"/>
<path d="M12,21c-5,0-9-4-9-9s4-9,9-9s9,4,9,9S17,21,12,21L12,21z M15.4,9.4c0.2-0.2,0.2-0.6,0-0.8c-0.2-0.2-0.6-0.2-0.8,0l-2.8,2.8
	L9,8.6c-0.2-0.2-0.6-0.2-0.8,0S8,9.2,8.2,9.4l2.8,2.8L8.2,15c-0.2,0.2-0.2,0.6,0,0.8C8.5,16,8.8,16,9,15.8l2.8-2.8l2.8,2.8
	c0.2,0.2,0.6,0.2,0.8,0c0.2-0.2,0.2-0.6,0-0.8l-2.8-2.8L15.4,9.4z"/>
</svg>
