<?xml version="1.0" encoding="utf-8"?>
<!-- Generator: Adobe Illustrator 18.0.0, SVG Export Plug-In . SVG Version: 6.00 Build 0)  -->
<!DOCTYPE svg PUBLIC "-//W3C//DTD SVG 1.1//EN" "http://www.w3.org/Graphics/SVG/1.1/DTD/svg11.dtd">
<svg version="1.1" id="图层_1" xmlns="http://www.w3.org/2000/svg" xmlns:xlink="http://www.w3.org/1999/xlink" x="0px" y="0px"
	 viewBox="0 0 24 24" enable-background="new 0 0 24 24" xml:space="preserve">
<rect x="1" y="1" display="none" width="22" height="22"/>
<path d="M19.6,14.5c-0.3,0-0.6,0.2-0.7,0.5h0c-1,2.7-3.6,4.6-6.7,4.6c-3.9,0-7.1-3.2-7.1-7.1s3.2-7.1,7.1-7.1c0.8,0,1.5,0.1,2.2,0.3
	L13.7,7c-0.1,0.1,0,0.3,0.1,0.4c0.1,0,0.1,0,0.2,0l4.2-0.3c0.1,0,0.2-0.1,0.2-0.2c0-0.1,0-0.2,0-0.3v0l-2.3-3.5c0,0-0.1-0.1-0.1-0.1
	c-0.1-0.1-0.3,0-0.4,0.1L15,4.4c-0.9-0.3-1.8-0.5-2.8-0.5c-4.7,0-8.5,3.8-8.5,8.5S7.5,21,12.2,21c3.7,0,6.8-2.2,8-5.5
	c0.1-0.1,0.1-0.2,0.1-0.3C20.3,14.8,20,14.5,19.6,14.5L19.6,14.5z"/>
</svg>
