<?xml version="1.0" encoding="utf-8"?>
<!-- Generator: Adobe Illustrator 18.0.0, SVG Export Plug-In . SVG Version: 6.00 Build 0)  -->
<!DOCTYPE svg PUBLIC "-//W3C//DTD SVG 1.1//EN" "http://www.w3.org/Graphics/SVG/1.1/DTD/svg11.dtd">
<svg version="1.1" id="图层_1" xmlns="http://www.w3.org/2000/svg" xmlns:xlink="http://www.w3.org/1999/xlink" x="0px" y="0px"
	 viewBox="0 0 24 24" enable-background="new 0 0 24 24" xml:space="preserve">
<rect x="1" y="1" display="none" width="22" height="22"/>
<g>
	<g>
		<path fill="#8281F9" d="M15.1,2C15,2,6.4,2,6.4,2C5,2,3.9,3.1,3.9,4.5v15C3.9,20.9,5,22,6.4,22h11.2c1.4,0,2.5-1.1,2.5-2.5V7
			L15.1,2z"/>
		<path fill="#AFAFFF" d="M16.4,7c-0.7,0-1.3-0.6-1.3-1.3V2l5,5H16.4z"/>
	</g>
	<path fill="#FFFFFF" d="M15.3,14.4v-1.6c0-0.2,0.1-0.4,0.1-0.4l1.8-1.9c0.6-0.6,1.3-0.8,1.3-0.1v6.5c0,0.6-0.7,0.5-1.3-0.1
		l-1.8-1.9C15.4,14.7,15.3,14.5,15.3,14.4L15.3,14.4z M14.4,16.2c0,0.6-0.4,1-1,1h-7c-0.6,0-1-0.4-1-1v-5.3c0-0.6,0.4-1,1-1h7
		c0.6,0,1,0.4,1,1V16.2z M14.4,16.2"/>
</g>
</svg>
