<?xml version="1.0" encoding="utf-8"?>
<!-- Generator: Adobe Illustrator 18.0.0, SVG Export Plug-In . SVG Version: 6.00 Build 0)  -->
<!DOCTYPE svg PUBLIC "-//W3C//DTD SVG 1.1//EN" "http://www.w3.org/Graphics/SVG/1.1/DTD/svg11.dtd">
<svg version="1.1" id="图层_1" xmlns="http://www.w3.org/2000/svg" xmlns:xlink="http://www.w3.org/1999/xlink" x="0px" y="0px"
	 viewBox="0 0 24 24" enable-background="new 0 0 24 24" xml:space="preserve">
<rect x="1" y="1" display="none" width="22" height="22"/>
<g>
	<g>
		<path fill="#FF9124" d="M15.1,2C15,2,6.4,2,6.4,2C5,2,3.9,3.1,3.9,4.5v15C3.9,20.9,5,22,6.4,22h11.2c1.4,0,2.5-1.1,2.5-2.5V7
			L15.1,2z"/>
		<path fill="#FFBC82" d="M16.4,7c-0.7,0-1.3-0.6-1.3-1.3V2l5,5H16.4z"/>
	</g>
	<g>
		<path fill="#FFFFFF" d="M10.6,18.5H8.5V8.7h3c2.7,0,4,1,4,3c-0.1,1.9-1.2,2.9-3.4,3h-1.5V18.5z M10.6,10.4v2.8c0.1,0,0.4,0,0.6,0
			c1.4,0.1,2.1-0.3,2.1-1.4c0-1-0.7-1.4-2.1-1.4C10.9,10.4,10.7,10.4,10.6,10.4z"/>
	</g>
</g>
</svg>
