<?xml version="1.0" encoding="utf-8"?>
<!-- Generator: Adobe Illustrator 18.0.0, SVG Export Plug-In . SVG Version: 6.00 Build 0)  -->
<!DOCTYPE svg PUBLIC "-//W3C//DTD SVG 1.1//EN" "http://www.w3.org/Graphics/SVG/1.1/DTD/svg11.dtd">
<svg version="1.1" id="图层_1" xmlns="http://www.w3.org/2000/svg" xmlns:xlink="http://www.w3.org/1999/xlink" x="0px" y="0px"
	 viewBox="0 0 24 24" enable-background="new 0 0 24 24" xml:space="preserve">
<rect x="1" y="1" display="none" width="22" height="22"/>
<g>
	<path d="M21,19.4v-4.9c0-0.3-0.3-0.6-0.6-0.6s-0.6,0.3-0.6,0.6v4.3H4.2v-4.3c0-0.3-0.3-0.6-0.6-0.6S3,14.1,3,14.5v4.9
		C3,19.7,3.3,20,3.6,20h16.8l0,0C20.7,20,21,19.7,21,19.4z"/>
	<path d="M14.6,11c0.2-0.2,0.6-0.2,0.9,0c0.2,0.2,0.2,0.6,0,0.9l-3,3.7c-0.1,0.1-0.3,0.2-0.5,0.2c-0.2,0-0.3,0-0.5-0.2l-3-3.7
		c-0.2-0.2-0.2-0.6,0-0.9c0.2-0.2,0.6-0.2,0.9,0l2,2.4V4.6C11.4,4.3,11.7,4,12,4s0.6,0.3,0.6,0.6v8.8L14.6,11L14.6,11z"/>
</g>
</svg>
