<?xml version="1.0" encoding="utf-8"?>
<!-- Generator: Adobe Illustrator 18.0.0, SVG Export Plug-In . SVG Version: 6.00 Build 0)  -->
<!DOCTYPE svg PUBLIC "-//W3C//DTD SVG 1.1//EN" "http://www.w3.org/Graphics/SVG/1.1/DTD/svg11.dtd">
<svg version="1.1" id="图层_1" xmlns="http://www.w3.org/2000/svg" xmlns:xlink="http://www.w3.org/1999/xlink" x="0px" y="0px"
	 viewBox="0 0 24 24" enable-background="new 0 0 24 24" xml:space="preserve">
<rect x="1" y="1" display="none" width="22" height="22"/>
<g>
	<path d="M10.2,4H4.3C3.6,4,3,4.6,3,5.2v13.5C3,19.4,3.6,20,4.3,20h15.4c0.7,0,1.3-0.6,1.3-1.2V7.7c0-0.7-0.6-1.2-1.3-1.2h-5.9
		c-0.3,0-0.7-0.1-0.9-0.4l-1.8-1.7C10.8,4.1,10.5,4,10.2,4 M10.2,5.2L12,7c0.5,0.5,1.1,0.7,1.8,0.7h5.9v11.1H4.3V5.2L10.2,5.2"/>
	<path d="M12.6,13.2h2.6c0.4,0,0.6-0.3,0.6-0.6c0-0.3-0.3-0.6-0.6-0.6h-2.6V9.5c0-0.3-0.3-0.6-0.6-0.6s-0.6,0.3-0.6,0.6V12H8.8
		c-0.4,0-0.6,0.3-0.6,0.6c0,0.3,0.3,0.6,0.6,0.6h2.6v2.5c0,0.3,0.3,0.6,0.6,0.6s0.6-0.3,0.6-0.6V13.2z M12.6,13.2"/>
</g>
</svg>
