<?xml version="1.0" encoding="utf-8"?>
<!-- Generator: Adobe Illustrator 18.0.0, SVG Export Plug-In . SVG Version: 6.00 Build 0)  -->
<!DOCTYPE svg PUBLIC "-//W3C//DTD SVG 1.1//EN" "http://www.w3.org/Graphics/SVG/1.1/DTD/svg11.dtd">
<svg version="1.1" id="图层_1" xmlns="http://www.w3.org/2000/svg" xmlns:xlink="http://www.w3.org/1999/xlink" x="0px" y="0px"
	 viewBox="0 0 24 24" enable-background="new 0 0 24 24" xml:space="preserve">
<rect x="1" y="1" display="none" width="22" height="22"/>
<g>
	<g>
		<path fill="#B5C9D7" d="M15.1,2C15,2,6.4,2,6.4,2C5,2,3.9,3.1,3.9,4.5v15C3.9,20.9,5,22,6.4,22h11.2c1.4,0,2.5-1.1,2.5-2.5V7
			L15.1,2z"/>
		<path fill="#D6E5EF" d="M16.4,7c-0.7,0-1.3-0.6-1.3-1.3V2l5,5H16.4z"/>
	</g>
	<g>
		<path fill="#FFFFFF" d="M12.4,12.4c0.1,0,0.1,0,0.2,0c0.8,0,1.4-0.1,1.8-0.1c0,0,0.1,0,0.1,0c0.1,0,0.1,0,0.1,0.1
			c0,0.1,0,0.1,0,0.2c0,0.4,0.1,0.8,0.1,1.3c0,0.4,0,0.8-0.1,1.2c0,0,0,0.1,0,0.1c0,0,0,0.1,0,0.1c0,0,0,0-0.1,0c0,0,0,0-0.1,0
			C13.8,15,13.2,15,12.5,15c0,0-0.1,0-0.1,0c-0.1,0-0.1,0-0.1-0.1L12.4,12.4C12.3,12.4,12.3,12.4,12.4,12.4L12.4,12.4z M9.4,15
			c0,0,0-0.1,0-0.1c0-0.4-0.1-0.8-0.1-1.2c0-0.5,0-0.9,0.1-1.3c0,0,0-0.1,0-0.1c0,0,0,0,0-0.1c0,0,0,0,0.1,0c0,0,0.1,0,0.1,0
			c0.5,0.1,1.1,0.1,1.8,0.1c0,0,0.1,0,0.1,0c0.1,0,0.1,0,0.1,0.1v2.4c0,0.1,0,0.1-0.1,0.1c0,0-0.1,0-0.1,0c-0.7,0-1.3,0.1-1.9,0.1
			c0,0-0.1,0-0.1,0C9.5,15.1,9.5,15.1,9.4,15C9.5,15.1,9.4,15.1,9.4,15L9.4,15z M11.7,8.5v3.2c0,0,0,0.1,0,0.1c0,0,0,0-0.1,0l0,0
			c-0.7,0-1.3-0.1-1.8-0.1c0,0,0,0-0.1,0c0,0-0.1,0-0.1,0c0,0,0-0.1,0-0.1c0,0,0,0,0-0.1c0.3-1.3,1-2.3,1.9-3c0,0,0,0,0.1,0
			C11.6,8.4,11.6,8.4,11.7,8.5C11.7,8.5,11.7,8.5,11.7,8.5L11.7,8.5z M12.3,8.5C12.3,8.5,12.3,8.5,12.3,8.5c0.1-0.1,0.1-0.1,0.1-0.1
			c0,0,0.1,0,0.1,0.1c0.9,0.7,1.5,1.6,1.9,2.9c0,0,0,0.1,0,0.1c0,0,0,0.1,0,0.1c0,0,0,0-0.1,0c0,0-0.1,0-0.1,0
			c-0.5,0.1-1.1,0.1-1.7,0.1c0,0-0.1,0-0.2,0c0,0-0.1,0-0.1,0c0,0,0,0,0-0.1V8.5L12.3,8.5z M9.7,15.7c0.1,0,0.1,0,0.1,0
			c0.5-0.1,1.1-0.1,1.7-0.1c0,0,0,0,0.1,0c0,0,0.1,0,0.1,0c0,0,0,0,0,0.1V19c0,0,0,0.1-0.1,0.1c0,0-0.1,0-0.1,0c0,0,0,0-0.1-0.1
			c-0.9-0.7-1.5-1.7-1.9-3c0,0,0-0.1,0-0.2C9.6,15.8,9.6,15.8,9.7,15.7C9.6,15.7,9.6,15.7,9.7,15.7L9.7,15.7z M14.4,15.8
			c0,0,0,0.1,0,0.1c-0.3,1.3-0.9,2.3-1.8,3c0,0-0.1,0-0.1,0.1c0,0-0.1,0-0.1,0c0,0-0.1-0.1-0.1-0.1v-3.3c0,0,0-0.1,0-0.1
			c0,0,0,0,0.1,0c0.1,0,0.1,0,0.2,0c0.6,0,1.2,0,1.7,0.1c0,0,0.1,0,0.1,0C14.4,15.7,14.4,15.7,14.4,15.8
			C14.4,15.8,14.4,15.8,14.4,15.8L14.4,15.8z M15.2,13.8c0-0.5,0-0.9-0.1-1.3c0-0.1,0-0.1,0-0.2c0-0.1,0-0.1,0.1-0.1
			c0,0,0.1,0,0.1,0c0.7-0.2,1.2-0.4,1.6-0.6l0,0c0,0,0.1,0,0.1,0c0,0,0.1,0,0.1,0.1c0,0,0,0.1,0.1,0.1c0.3,0.7,0.5,1.4,0.5,2.2
			c0,0.7-0.1,1.4-0.4,2c0,0,0,0.1,0,0.1c0,0,0,0-0.1,0.1c0,0-0.1,0-0.1,0l0,0c-0.4-0.3-1-0.5-1.6-0.6c0,0-0.1,0-0.1,0
			c-0.1,0-0.1-0.1-0.1-0.1c0,0,0-0.1,0-0.1C15.2,14.6,15.2,14.2,15.2,13.8L15.2,13.8z M13.8,8.5c1.1,0.4,2.1,1.1,2.8,2.1
			c0,0,0.1,0.1,0.1,0.2c0,0,0,0.1,0,0.1L16.5,11c-0.3,0.2-0.7,0.4-1.3,0.5c0,0-0.1,0-0.1,0c-0.1,0-0.1,0-0.1-0.1c0,0,0,0,0-0.1
			c-0.3-1.2-0.8-2.1-1.5-2.9c0,0,0,0,0-0.1c0,0,0,0,0.1,0C13.6,8.5,13.7,8.5,13.8,8.5L13.8,8.5z M15.1,15.8c0,0,0.1,0,0.1,0
			c0.6,0.1,1,0.3,1.4,0.5l0.1,0.1c0,0,0.1,0.1,0,0.1c0,0.1-0.1,0.1-0.1,0.1c-0.7,1.1-1.7,1.9-3,2.3c0,0-0.1,0-0.2,0.1
			c0,0-0.1,0-0.1,0c0,0,0-0.1,0-0.1c0.7-0.8,1.2-1.7,1.5-2.9c0,0,0-0.1,0-0.2C15,15.9,15.1,15.8,15.1,15.8L15.1,15.8z M7,15.9
			L7,15.9c-0.1,0-0.1,0-0.1,0c0,0-0.1,0-0.1-0.1c0,0,0,0,0,0c-0.3-0.6-0.4-1.3-0.4-2.1c0-0.8,0.2-1.5,0.4-2.2c0,0,0-0.1,0.1-0.1
			c0,0,0,0,0.1-0.1c0,0,0.1,0,0.1,0l0.1,0c0.4,0.3,0.9,0.5,1.5,0.6c0,0,0.1,0,0.1,0c0.1,0,0.1,0.1,0.1,0.1c0,0.1,0,0.1,0,0.2
			c-0.1,0.4-0.1,0.9-0.1,1.4c0,0.4,0,0.9,0.1,1.3c0,0,0,0.1,0,0.1c0,0.1,0,0.1-0.1,0.1c0,0-0.1,0-0.1,0C8,15.4,7.5,15.6,7,15.9
			L7,15.9z M10.6,8.5C9.8,9.2,9.3,10.2,9,11.4c0,0,0,0,0,0c0,0.1-0.1,0.1-0.1,0.1c0,0,0,0-0.1,0c-0.6-0.1-1-0.3-1.3-0.5l-0.1-0.1
			c0,0-0.1-0.1,0-0.1c0,0,0-0.1,0.1-0.1c0.7-1,1.7-1.8,2.9-2.1C10.3,8.5,10.4,8.4,10.6,8.5C10.6,8.4,10.6,8.4,10.6,8.5
			C10.6,8.5,10.6,8.5,10.6,8.5L10.6,8.5z M7.3,16.5l0.1-0.1c0.3-0.2,0.8-0.4,1.4-0.5c0,0,0.1,0,0.1,0c0,0,0.1,0,0.1,0c0,0,0,0,0,0.1
			C9,16,9,16,9,16.1c0.3,1.2,0.8,2.1,1.5,2.9l0,0c0,0,0,0.1,0,0.1c0,0-0.1,0-0.1,0c-1.3-0.4-2.4-1.3-3.2-2.4c0,0,0-0.1-0.1-0.1
			C7.2,16.6,7.2,16.5,7.3,16.5L7.3,16.5z M7.3,16.5"/>
	</g>
</g>
</svg>
