<?xml version="1.0" encoding="utf-8"?>
<!-- Generator: Adobe Illustrator 18.0.0, SVG Export Plug-In . SVG Version: 6.00 Build 0)  -->
<!DOCTYPE svg PUBLIC "-//W3C//DTD SVG 1.1//EN" "http://www.w3.org/Graphics/SVG/1.1/DTD/svg11.dtd">
<svg version="1.1" id="图层_1" xmlns="http://www.w3.org/2000/svg" xmlns:xlink="http://www.w3.org/1999/xlink" x="0px" y="0px"
	 viewBox="0 0 24 24" enable-background="new 0 0 24 24" xml:space="preserve">
<rect x="1" y="1" display="none" width="22" height="22"/>
<path d="M20.3,8.5c-0.5-1.1-1.1-2-1.9-2.9c-0.8-0.8-1.8-1.5-2.9-1.9C14.4,3.2,13.2,3,12,3S9.6,3.2,8.5,3.7c-1.1,0.5-2,1.1-2.9,1.9
	S4.2,7.4,3.7,8.5C3.2,9.6,3,10.8,3,12s0.2,2.4,0.7,3.5c0.5,1.1,1.1,2,1.9,2.9c0.8,0.8,1.8,1.5,2.9,1.9C9.6,20.8,10.8,21,12,21
	s2.4-0.2,3.5-0.7c1.1-0.5,2-1.1,2.9-1.9c0.8-0.8,1.5-1.8,1.9-2.9c0.5-1.1,0.7-2.3,0.7-3.5S20.8,9.6,20.3,8.5z M12,19.8
	c-4.3,0-7.8-3.5-7.8-7.8S7.7,4.2,12,4.2s7.8,3.5,7.8,7.8S16.3,19.8,12,19.8z M15.9,8c-0.2-0.2-0.6-0.2-0.8,0l-3.2,3.2L8.8,8
	C8.5,7.8,8.2,7.8,8,8s-0.2,0.6,0,0.8l3.2,3.2l-3.2,3.2c-0.2,0.2-0.2,0.6,0,0.8s0.6,0.2,0.8,0l3.2-3.2l3.2,3.2c0.2,0.2,0.6,0.2,0.8,0
	c0.2-0.2,0.2-0.6,0-0.8L12.8,12l3.2-3.2C16.1,8.6,16.1,8.2,15.9,8z"/>
</svg>
