<?xml version="1.0" encoding="utf-8"?>
<!-- Generator: Adobe Illustrator 18.0.0, SVG Export Plug-In . SVG Version: 6.00 Build 0)  -->
<!DOCTYPE svg PUBLIC "-//W3C//DTD SVG 1.1//EN" "http://www.w3.org/Graphics/SVG/1.1/DTD/svg11.dtd">
<svg version="1.1" id="图层_1" xmlns="http://www.w3.org/2000/svg" xmlns:xlink="http://www.w3.org/1999/xlink" x="0px" y="0px"
	 viewBox="0 0 24 24" enable-background="new 0 0 24 24" xml:space="preserve">
<rect x="1" y="1" display="none" width="22" height="22"/>
<g>
	<path d="M18.3,2H10C9.5,2,9,2.4,9,3v3.3c0,0.6-0.4,1-1,1H4.7c-0.6,0-1,0.4-1,1V20c0,1.1,0.9,2,2,2h12.7c1.1,0,2-0.9,2-2V4
		C20.3,2.9,19.4,2,18.3,2L18.3,2z M16.2,17H7.8c-0.3,0-0.5-0.2-0.5-0.5c0-0.3,0.2-0.5,0.5-0.5h8.3c0.3,0,0.5,0.2,0.5,0.5
		C16.7,16.8,16.4,17,16.2,17L16.2,17z M16.2,13.7H7.8c-0.3,0-0.5-0.2-0.5-0.5s0.2-0.5,0.5-0.5h8.3c0.3,0,0.5,0.2,0.5,0.5
		S16.4,13.7,16.2,13.7L16.2,13.7z M16.2,10.3h-5.3c-0.3,0-0.5-0.2-0.5-0.5s0.2-0.5,0.5-0.5h5.3c0.3,0,0.5,0.2,0.5,0.5
		S16.4,10.3,16.2,10.3L16.2,10.3z M4.4,6.4H7c0.6,0,1-0.4,1-1V2.6c0-0.4-0.2-0.5-0.5-0.2L4.2,5.9C3.9,6.1,4,6.4,4.4,6.4L4.4,6.4z
		 M4.4,6.4"/>
</g>
</svg>
