<?xml version="1.0" encoding="utf-8"?>
<!-- Generator: Adobe Illustrator 18.0.0, SVG Export Plug-In . SVG Version: 6.00 Build 0)  -->
<!DOCTYPE svg PUBLIC "-//W3C//DTD SVG 1.1//EN" "http://www.w3.org/Graphics/SVG/1.1/DTD/svg11.dtd">
<svg version="1.1" id="图层_1" xmlns="http://www.w3.org/2000/svg" xmlns:xlink="http://www.w3.org/1999/xlink" x="0px" y="0px"
	 viewBox="0 0 24 24" enable-background="new 0 0 24 24" xml:space="preserve">
<rect x="1" y="1" display="none" width="22" height="22"/>
<g>
	<path d="M19.8,2H4.2C3,2,2,3,2,4.2v15.6C2,21,3,22,4.2,22h15.6c1.2,0,2.2-1,2.2-2.2V4.2C22,3,21,2,19.8,2L19.8,2z M11.5,10.6
		c-0.3,0.8-0.5,2.1-1,3.1c-0.2,0.6-0.2,0.5-0.4,0.8l0.1,0c1.5-0.4,2.5-0.5,3.5-0.7c-0.2-0.2-0.4-0.3-0.5-0.4
		C12.6,12.7,12.4,12.5,11.5,10.6L11.5,10.6z M18.8,15.3c-0.2,0.2-0.5,0.3-1,0.3c-0.8,0-1.6-0.2-2.7-0.8c-1.9,0.2-3.9,0.4-5.1,0.8
		c-0.1,0-0.1,0-0.2,0.1C8.4,18,7.4,19,6.5,19c-0.3,0-0.7-0.2-0.8-0.3l-0.2-0.2l-0.1-0.1c-0.1-0.2-0.1-0.4-0.1-0.6
		c0.1-0.6,0.8-1.5,2.1-2.4c0.2-0.2,0.7-0.4,1.1-0.6c0.3-0.5,0.5-0.9,0.9-1.8c0.5-1.1,0.9-2.5,1.2-3.5v0c-0.4-1.3-0.7-2.3-0.2-3.7
		C10.6,5.4,10.9,5,11.3,5h0.3c0.3,0,0.5,0.1,0.7,0.3c0.7,0.7,0.4,2.6,0,4.1c0,0.1,0,0.1,0,0.2c0.4,1.3,1.1,2.5,1.8,3.1
		c0.3,0.2,0.6,0.5,0.9,0.7c0.5-0.1,0.9-0.1,1.4-0.1c1.4,0,2.2,0.2,2.5,0.8c0.1,0.2,0.2,0.4,0.1,0.6C19.1,14.8,19,15.1,18.8,15.3
		L18.8,15.3z M18.1,14.3c-0.1-0.1-0.4-0.4-2-0.4c-0.1,0-0.3,0-0.4,0.1c0.8,0.4,1.6,0.6,2.1,0.6c0.1,0,0.1,0,0.2,0h0
		c0.1,0,0.1,0,0.1-0.1C18.2,14.4,18.1,14.4,18.1,14.3L18.1,14.3z M8.3,15.9c-0.2,0.1-0.4,0.3-0.5,0.3C7,17,6.5,17.7,6.4,18.2
		C6.9,18,7.6,17.3,8.3,15.9L8.3,15.9z M11.5,8.4L11.5,8.4c0.1-0.4,0.2-0.8,0.3-1l0-0.2c0.1-0.6,0.1-1-0.1-1.3l-0.2-0.1
		c0,0-0.1,0.1-0.1,0.1C11.2,6.5,11.2,7.4,11.5,8.4L11.5,8.4z M11.5,8.4"/>
</g>
</svg>
