<?xml version="1.0" encoding="utf-8"?>
<!-- Generator: Adobe Illustrator 18.0.0, SVG Export Plug-In . SVG Version: 6.00 Build 0)  -->
<!DOCTYPE svg PUBLIC "-//W3C//DTD SVG 1.1//EN" "http://www.w3.org/Graphics/SVG/1.1/DTD/svg11.dtd">
<svg version="1.1" id="图层_1" xmlns="http://www.w3.org/2000/svg" xmlns:xlink="http://www.w3.org/1999/xlink" x="0px" y="0px"
	 viewBox="0 0 24 24" enable-background="new 0 0 24 24" xml:space="preserve">
<rect x="1" y="1" display="none" width="22" height="22"/>
<path d="M12,2C6.5,2,2,6.5,2,12s4.5,10,10,10s10-4.5,10-10C22,6.5,17.5,2,12,2L12,2z M12.2,5c3.8,0,3.8,2.9,3.8,4.5
	c0,1.6-1.5,4.6-3.8,4.7c-2.2,0-3.8-3-3.8-4.7C8.4,7.9,8.4,5,12.2,5L12.2,5z M12,21.4c-2.9,0-5.5-1.3-7.2-3.4c0.3-0.6,0.6-1.3,1-1.7
	c0.9-0.7,3.7-2,3.7-2l1.8,3.4l0.3-0.8l-0.5-1l1-1l1,1L12.6,17l0.3,0.8l1.8-3.3c0,0,2.8,1.2,3.7,2c0.4,0.3,0.7,0.9,0.9,1.4
	C17.7,20,15,21.4,12,21.4L12,21.4z M12,21.4"/>
</svg>
