<?xml version="1.0" encoding="utf-8"?>
<!-- Generator: Adobe Illustrator 18.0.0, SVG Export Plug-In . SVG Version: 6.00 Build 0)  -->
<!DOCTYPE svg PUBLIC "-//W3C//DTD SVG 1.1//EN" "http://www.w3.org/Graphics/SVG/1.1/DTD/svg11.dtd">
<svg version="1.1" id="图层_1" xmlns="http://www.w3.org/2000/svg" xmlns:xlink="http://www.w3.org/1999/xlink" x="0px" y="0px"
	 viewBox="0 0 24 24" enable-background="new 0 0 24 24" xml:space="preserve">
<rect x="1" y="1" display="none" width="22" height="22"/>
<g>
	<path d="M20.3,11.5l-3.4-3.3c-0.3-0.3-0.7-0.3-1,0c-0.3,0.3-0.3,0.7,0,0.9l2.2,2.2h-6.5c-0.4,0-0.7,0.3-0.7,0.7
		c0,0.4,0.3,0.7,0.7,0.7h6.5l-2.2,2.2c-0.3,0.3-0.3,0.7,0,0.9c0.1,0.1,0.3,0.2,0.5,0.2c0.2,0,0.3-0.1,0.5-0.2l3.4-3.3
		c0,0,0-0.1,0.1-0.1C20.6,12.1,20.6,11.7,20.3,11.5L20.3,11.5z M20.3,11.5"/>
	<path d="M18.5,16.6c-0.4,0-0.7,0.3-0.7,0.7v1.3c0,0.4-0.3,0.7-0.7,0.7H5.5c-0.4,0-0.7-0.3-0.7-0.7V5.5c0-0.4,0.3-0.7,0.7-0.7h11.6
		c0.4,0,0.7,0.3,0.7,0.7v1.3c0,0.4,0.3,0.7,0.7,0.7c0.4,0,0.7-0.3,0.7-0.7V5.5c0-1.1-0.9-2-2-2H5.5c-1.2,0-2,0.8-2,2v13.1
		c0,1.1,0.9,2,2,2h11.6c1.2,0,2-0.9,2-2v-1.3C19.1,16.8,18.9,16.6,18.5,16.6L18.5,16.6z"/>
	<path d="M18.5,16.6"/>
</g>
</svg>
