<?xml version="1.0" encoding="utf-8"?>
<!-- Generator: Adobe Illustrator 18.0.0, SVG Export Plug-In . SVG Version: 6.00 Build 0)  -->
<!DOCTYPE svg PUBLIC "-//W3C//DTD SVG 1.1//EN" "http://www.w3.org/Graphics/SVG/1.1/DTD/svg11.dtd">
<svg version="1.1" id="图层_1" xmlns="http://www.w3.org/2000/svg" xmlns:xlink="http://www.w3.org/1999/xlink" x="0px" y="0px"
	 viewBox="0 0 24 24" enable-background="new 0 0 24 24" xml:space="preserve">
<rect x="1" y="1" display="none" width="22" height="22"/>
<g>
	<g>
		<g>
			<path fill="#8281F9" d="M15.1,2C15,2,6.4,2,6.4,2C5,2,3.9,3.1,3.9,4.5v15C3.9,20.9,5,22,6.4,22h11.2c1.4,0,2.5-1.1,2.5-2.5V7
				L15.1,2z"/>
			<path fill="#AFAFFF" d="M16.4,7c-0.7,0-1.3-0.6-1.3-1.3V2l5,5H16.4z"/>
		</g>
	</g>
	<g>
		<g>
			<path fill="#FFFFFF" d="M14.9,8l-4.5,1.4c-0.5,0.2-1,0.7-1,1.3v4.7c0,0-0.3-0.2-1-0.1c-1.1,0.2-1.9,1-1.9,1.8
				c0,0.9,0.9,1.4,1.9,1.2c1.1-0.2,1.8-0.9,1.8-1.8V12c0-0.4,0.5-0.5,0.5-0.5l4-1.2c0,0,0.4-0.1,0.4,0.3v3.8c0,0-0.4-0.2-1.1-0.1
				C12.9,14.2,12,15,12,15.8c0,0.9,0.9,1.4,1.9,1.3c1.1-0.1,1.9-0.9,1.9-1.8V8.7C15.8,8.2,15.4,7.9,14.9,8L14.9,8z M14.9,8"/>
		</g>
	</g>
</g>
</svg>
