<?xml version="1.0" encoding="utf-8"?>
<!-- Generator: Adobe Illustrator 18.0.0, SVG Export Plug-In . SVG Version: 6.00 Build 0)  -->
<!DOCTYPE svg PUBLIC "-//W3C//DTD SVG 1.1//EN" "http://www.w3.org/Graphics/SVG/1.1/DTD/svg11.dtd">
<svg version="1.1" id="图层_1" xmlns="http://www.w3.org/2000/svg" xmlns:xlink="http://www.w3.org/1999/xlink" x="0px" y="0px"
	 viewBox="0 0 24 24" enable-background="new 0 0 24 24" xml:space="preserve">
<rect x="1" y="1" display="none" width="22" height="22"/>
<g>
	<path fill="#3688FF" d="M12,12 M12,12"/>
	<path fill="#FFCD2E" d="M20.5,6.4c0.7,0,1.2,0.4,1.4,1C22,7.6,22,7.7,22,7.9c0,3.7,0,7.4,0,11.1c0,0.8-0.6,1.4-1.4,1.4H3.4
		c-0.8,0-1.4-0.6-1.4-1.4V6.4C2,6.4,17.8,6.4,20.5,6.4L20.5,6.4z M20.5,6.4"/>
	<path fill="#CE9F09" d="M12,6.4c0-1.5-1.2-2.8-2.8-2.8H3.4C2.6,3.6,2,4.2,2,5.1v1.4C2.7,6.4,12.1,6.4,12,6.4L12,6.4z M12,6.4"/>
</g>
</svg>
