<?xml version="1.0" encoding="utf-8"?>
<!-- Generator: Adobe Illustrator 18.0.0, SVG Export Plug-In . SVG Version: 6.00 Build 0)  -->
<!DOCTYPE svg PUBLIC "-//W3C//DTD SVG 1.1//EN" "http://www.w3.org/Graphics/SVG/1.1/DTD/svg11.dtd">
<svg version="1.1" id="图层_1" xmlns="http://www.w3.org/2000/svg" xmlns:xlink="http://www.w3.org/1999/xlink" x="0px" y="0px"
	 viewBox="0 0 24 24" enable-background="new 0 0 24 24" xml:space="preserve">
<rect x="1" y="1" display="none" width="22" height="22"/>
<path d="M13.9,17.1c-0.4,0-0.6-0.3-0.6-0.6V9.4c0-0.4,0.3-0.6,0.6-0.6s0.6,0.3,0.6,0.6v7.1C14.6,16.9,14.3,17.1,13.9,17.1L13.9,17.1
	L13.9,17.1z M10.1,17.1c-0.4,0-0.6-0.3-0.6-0.6V9.4c0-0.4,0.3-0.6,0.6-0.6c0.4,0,0.6,0.3,0.6,0.6v7.1C10.7,16.9,10.4,17.1,10.1,17.1
	L10.1,17.1L10.1,17.1z M20.4,6.2h-3.2V4.9c0-1.1-0.9-1.9-1.9-1.9H8.8C7.7,3,6.9,3.9,6.9,4.9v1.3H3.6C3.3,6.2,3,6.5,3,6.9
	c0,0.4,0.3,0.6,0.6,0.6h16.7c0.4,0,0.6-0.3,0.6-0.6S20.7,6.2,20.4,6.2L20.4,6.2L20.4,6.2L20.4,6.2z M8.1,4.9c0-0.4,0.3-0.6,0.6-0.6
	h6.4c0.4,0,0.6,0.3,0.6,0.6v1.3H8.1L8.1,4.9z M16.5,21h-9c-1.1,0-1.9-0.9-1.9-1.9V9.4c0-0.4,0.3-0.6,0.6-0.6s0.6,0.3,0.6,0.6v9.7
	c0,0.4,0.3,0.6,0.6,0.6h9c0.4,0,0.6-0.3,0.6-0.6V9.4c0-0.4,0.3-0.6,0.6-0.6s0.6,0.3,0.6,0.6v9.6C18.4,20.1,17.6,21,16.5,21L16.5,21
	L16.5,21z"/>
</svg>
