<?xml version="1.0" encoding="utf-8"?>
<!-- Generator: Adobe Illustrator 18.0.0, SVG Export Plug-In . SVG Version: 6.00 Build 0)  -->
<!DOCTYPE svg PUBLIC "-//W3C//DTD SVG 1.1//EN" "http://www.w3.org/Graphics/SVG/1.1/DTD/svg11.dtd">
<svg version="1.1" id="图层_1" xmlns="http://www.w3.org/2000/svg" xmlns:xlink="http://www.w3.org/1999/xlink" x="0px" y="0px"
	 viewBox="0 0 24 24" enable-background="new 0 0 24 24" xml:space="preserve">
<rect x="1" y="1" display="none" width="22" height="22"/>
<g>
	<g>
		<path d="M21.7,11.2c0,0-4,2.6-7,6.8L12,15.6l-1.2,1.1l4.7,5.3c0,0,2.2-5.9,6.5-10.1L21.7,11.2z M2,2h2.8v2.4H2V2z M6.4,2h11.1v2.4
			H6.4V2z M2,9.2h2.8v2.4H2V9.2z M6.4,9.2h11.1v2.4H6.4V9.2z M2,16.3h2.8v2.4H2V16.3z M6.4,16.3h3.2v2.4H6.4V16.3z M6.4,16.3"/>
	</g>
</g>
</svg>
