<?xml version="1.0" encoding="utf-8"?>
<!-- Generator: Adobe Illustrator 18.0.0, SVG Export Plug-In . SVG Version: 6.00 Build 0)  -->
<!DOCTYPE svg PUBLIC "-//W3C//DTD SVG 1.1//EN" "http://www.w3.org/Graphics/SVG/1.1/DTD/svg11.dtd">
<svg version="1.1" id="图层_1" xmlns="http://www.w3.org/2000/svg" xmlns:xlink="http://www.w3.org/1999/xlink" x="0px" y="0px"
	 viewBox="0 0 24 24" enable-background="new 0 0 24 24" xml:space="preserve">
<rect x="1" y="1" display="none" width="22" height="22"/>
<g>
	<g>
		<g>
			<path d="M15.2,20.7L15,20.5c-1.7-1.2-4.4-1.2-6.1,0l-0.2,0.1l-0.2-0.1c-0.8-0.3-1.6-0.8-2.3-1.4l-0.2-0.1l0-0.2
				c0.1-1-0.2-2.1-0.7-3.1c-0.5-0.9-1.4-1.7-2.3-2.2l-0.2-0.1l0-0.2c-0.1-0.4-0.1-0.9-0.1-1.3c0-0.4,0-0.9,0.1-1.3l0-0.2l0.2-0.1
				c1-0.4,1.8-1.2,2.3-2.2c0.5-0.9,0.8-2,0.7-3.1l0-0.2l0.2-0.1c0.7-0.6,1.5-1,2.3-1.4l0.2-0.1L9,3.5c1.7,1.2,4.4,1.2,6.1,0l0.2-0.1
				l0.2,0.1c0.8,0.3,1.6,0.8,2.3,1.4l0.2,0.1l0,0.2c-0.1,1,0.2,2.1,0.7,3.1c0.5,0.9,1.4,1.7,2.3,2.2l0.2,0.1l0,0.2
				c0.1,0.5,0.1,0.9,0.1,1.3c0,0.4,0,0.9-0.1,1.3l0,0.2l-0.2,0.1c-1,0.4-1.8,1.2-2.3,2.2c-0.5,0.9-0.8,2-0.7,3.1l0,0.2l-0.2,0.1
				c-0.7,0.6-1.5,1-2.3,1.3L15.2,20.7z M6.9,18.7c0.6,0.4,1.1,0.8,1.8,1c1.9-1.2,4.7-1.2,6.6,0c0.6-0.3,1.2-0.6,1.8-1
				c0-1.1,0.2-2.3,0.8-3.3c0.6-1,1.5-1.9,2.5-2.4c0-0.3,0.1-0.7,0.1-1c0-0.3,0-0.7-0.1-1c-1-0.5-1.9-1.4-2.5-2.4
				c-0.6-1-0.9-2.2-0.8-3.3c-0.6-0.4-1.1-0.8-1.8-1c-1.9,1.2-4.7,1.2-6.6,0c-0.6,0.3-1.2,0.6-1.8,1c0,1.1-0.2,2.3-0.8,3.3
				c-0.6,1-1.5,1.9-2.5,2.4c0,0.3-0.1,0.7-0.1,1c0,0.3,0,0.7,0.1,1c1,0.5,1.9,1.4,2.5,2.4C6.7,16.4,7,17.6,6.9,18.7z"/>
			<path d="M15.2,21l-0.3-0.2c-0.8-0.5-1.8-0.8-2.9-0.8s-2.1,0.3-2.9,0.8L8.8,21l-0.3-0.1c-0.9-0.3-1.7-0.8-2.4-1.4l-0.3-0.2l0-0.4
				c0.1-1-0.2-2-0.7-2.9C4.7,15,3.9,14.3,3,13.9l-0.3-0.1l-0.1-0.4c-0.1-0.5-0.1-0.9-0.1-1.4c0-0.5,0-0.9,0.1-1.4l0.1-0.3L3,10.1
				C3.9,9.7,4.7,9,5.2,8.1c0.5-0.9,0.8-1.9,0.7-2.9l0-0.4l0.3-0.2C6.8,4,7.6,3.5,8.5,3.2L8.8,3l0.3,0.2c0.8,0.5,1.8,0.8,2.9,0.8
				s2.1-0.3,2.9-0.8L15.2,3l0.3,0.1c0.9,0.3,1.7,0.8,2.4,1.4l0.3,0.2l0,0.4c-0.1,1,0.2,2,0.7,2.9c0.5,0.9,1.3,1.6,2.2,2.1l0.3,0.1
				l0.1,0.3c0.1,0.5,0.1,0.9,0.1,1.4c0,0.4,0,0.9-0.1,1.4l-0.1,0.3L21,13.9c-0.9,0.4-1.7,1.2-2.2,2.1c-0.5,0.9-0.8,1.9-0.7,2.9
				l0,0.4l-0.3,0.2c-0.7,0.6-1.5,1-2.4,1.4L15.2,21z M12,19.4c1.2,0,2.3,0.3,3.2,0.9l0.1,0l0.1,0c0.8-0.3,1.6-0.8,2.3-1.3l0.1,0
				l0-0.1c-0.1-1.1,0.2-2.2,0.7-3.2c0.6-1,1.4-1.8,2.4-2.3l0.1,0l0-0.1C21,12.9,21,12.4,21,12c0-0.4,0-0.9-0.1-1.3l0-0.1l-0.1,0
				c-1-0.5-1.9-1.3-2.4-2.3c-0.6-1-0.8-2.1-0.7-3.2l0-0.1l-0.1,0c-0.7-0.6-1.5-1-2.3-1.3l-0.1,0l-0.1,0c-0.9,0.6-2,0.9-3.2,0.9
				S9.7,4.3,8.8,3.7l-0.1,0l-0.1,0C7.9,4,7.1,4.4,6.4,5L6.4,5l0,0.1c0.1,1.1-0.2,2.2-0.7,3.2c-0.6,1-1.4,1.8-2.4,2.3l-0.1,0l0,0.1
				C3,11.1,3,11.6,3,12c0,0.4,0,0.9,0.1,1.3l0,0.1l0.1,0c1,0.5,1.9,1.3,2.4,2.3c0.6,1,0.8,2.1,0.7,3.2l0,0.1l0.1,0
				c0.7,0.6,1.5,1,2.3,1.3l0.1,0l0.1,0C9.7,19.7,10.8,19.4,12,19.4z M15.3,20L15.2,20c-0.9-0.5-2-0.9-3.2-0.9S9.7,19.4,8.8,20
				L8.7,20L8.6,20c-0.6-0.3-1.3-0.6-1.8-1.1l-0.1-0.1l0-0.1c0-1.1-0.2-2.2-0.8-3.2c-0.6-1-1.4-1.8-2.4-2.3l-0.1-0.1l0-0.1
				c0-0.4-0.1-0.7-0.1-1c0-0.3,0-0.7,0.1-1l0-0.1l0.1-0.1c1-0.5,1.8-1.3,2.4-2.3c0.6-1,0.8-2.1,0.8-3.2l0-0.1l0.1-0.1
				C7.3,4.6,8,4.3,8.6,4L8.7,4L8.8,4c0.9,0.5,2,0.8,3.2,0.8s2.3-0.3,3.2-0.8L15.3,4L15.4,4c0.6,0.3,1.3,0.6,1.8,1.1l0.1,0.1l0,0.1
				c0,1.1,0.2,2.2,0.8,3.2c0.6,1,1.4,1.8,2.4,2.3l0.1,0.1l0,0.1c0,0.4,0.1,0.7,0.1,1c0,0.3,0,0.7-0.1,1l0,0.1l-0.1,0.1
				c-1,0.5-1.8,1.3-2.4,2.3c-0.6,1-0.8,2.1-0.8,3.2l0,0.1l-0.1,0.1c-0.6,0.4-1.2,0.8-1.8,1.1L15.3,20z M7.2,18.6
				c0.5,0.3,1,0.6,1.5,0.9c0.9-0.6,2.1-0.9,3.3-0.9s2.4,0.3,3.3,0.9c0.5-0.2,1-0.5,1.5-0.9c0-1.1,0.3-2.3,0.9-3.3
				c0.6-1,1.5-1.9,2.5-2.4c0-0.3,0-0.6,0-0.9c0-0.3,0-0.6,0-0.9c-1-0.6-1.9-1.4-2.5-2.4c-0.6-1-0.9-2.2-0.9-3.3
				c-0.5-0.3-1-0.6-1.5-0.9c-0.9,0.6-2.1,0.9-3.3,0.9S9.6,5.1,8.7,4.5c-0.5,0.2-1,0.5-1.5,0.9c0,1.1-0.3,2.3-0.9,3.3
				c-0.6,1-1.5,1.9-2.5,2.4c0,0.3,0,0.6,0,0.9c0,0.3,0,0.6,0,0.9c1,0.6,1.9,1.4,2.5,2.4C6.9,16.3,7.2,17.5,7.2,18.6z"/>
		</g>
	</g>
	<g>
		<g>
			<path d="M11.8,15.3c-1.8,0-3.3-1.5-3.3-3.3s1.5-3.3,3.3-3.3c1.8,0,3.3,1.5,3.3,3.3S13.7,15.3,11.8,15.3z M11.8,9.5
				c-1.4,0-2.5,1.1-2.5,2.5s1.1,2.5,2.5,2.5s2.5-1.1,2.5-2.5S13.2,9.5,11.8,9.5z"/>
			<path d="M11.8,15.6c-2,0-3.6-1.6-3.6-3.6c0-2,1.6-3.6,3.6-3.6c2,0,3.6,1.6,3.6,3.6C15.4,14,13.8,15.6,11.8,15.6z M11.8,8.9
				c-1.7,0-3.1,1.4-3.1,3.1c0,1.7,1.4,3.1,3.1,3.1c1.7,0,3.1-1.4,3.1-3.1C14.9,10.3,13.5,8.9,11.8,8.9z M11.8,14.8
				C10.3,14.8,9,13.5,9,12s1.3-2.8,2.8-2.8c1.5,0,2.8,1.3,2.8,2.8S13.4,14.8,11.8,14.8z M11.8,9.7c-1.3,0-2.3,1-2.3,2.3
				s1,2.3,2.3,2.3s2.3-1,2.3-2.3S13.1,9.7,11.8,9.7z"/>
		</g>
	</g>
</g>
</svg>
