<?xml version="1.0" encoding="utf-8"?>
<!-- Generator: Adobe Illustrator 18.0.0, SVG Export Plug-In . SVG Version: 6.00 Build 0)  -->
<!DOCTYPE svg PUBLIC "-//W3C//DTD SVG 1.1//EN" "http://www.w3.org/Graphics/SVG/1.1/DTD/svg11.dtd">
<svg version="1.1" id="图层_1" xmlns="http://www.w3.org/2000/svg" xmlns:xlink="http://www.w3.org/1999/xlink" x="0px" y="0px"
	 viewBox="0 0 24 24" enable-background="new 0 0 24 24" xml:space="preserve">
<rect x="1" y="1" display="none" width="22" height="22"/>
<path d="M20.4,20L20.4,20H3.6C3.3,20,3,19.7,3,19.4v-4.9c0-0.3,0.3-0.6,0.6-0.6s0.6,0.3,0.6,0.6v4.3h15.6v-4.3
	c0-0.3,0.3-0.6,0.6-0.6s0.6,0.3,0.6,0.6v4.9C21,19.7,20.7,20,20.4,20z M14.6,8.7l-2-2.5v8.8c0,0.3-0.3,0.6-0.6,0.6s-0.6-0.3-0.6-0.6
	V6.3l-2,2.4C9.2,9,8.8,9,8.6,8.7c-0.2-0.2-0.2-0.6,0-0.9l3-3.7C11.7,4,11.8,4,12,4c0.2,0,0.3,0,0.5,0.2l3,3.7c0.2,0.2,0.2,0.6,0,0.9
	C15.2,9,14.8,9,14.6,8.7L14.6,8.7z"/>
</svg>
