<?xml version="1.0" encoding="utf-8"?>
<!-- Generator: Adobe Illustrator 18.0.0, SVG Export Plug-In . SVG Version: 6.00 Build 0)  -->
<!DOCTYPE svg PUBLIC "-//W3C//DTD SVG 1.1//EN" "http://www.w3.org/Graphics/SVG/1.1/DTD/svg11.dtd">
<svg version="1.1" id="图层_1" xmlns="http://www.w3.org/2000/svg" xmlns:xlink="http://www.w3.org/1999/xlink" x="0px" y="0px"
	 viewBox="0 0 24 24" enable-background="new 0 0 24 24" xml:space="preserve">
<rect x="1" y="1" display="none" width="22" height="22"/>
<g>
	<rect x="3" y="9" fill="#F95F5D" width="18" height="6.1"/>
	<path fill="#55C7F7" d="M21,9V4.1C21,3.5,20.5,3,19.9,3H4.1C3.5,3,3,3.5,3,4.1V9H21z"/>
	<path fill="#55C7F7" d="M21,9"/>
	<path fill="#7ECF3B" d="M3,15v4.8C3,20.5,3.5,21,4.1,21h15.8c0.6,0,1.1-0.5,1.1-1.1V15H3z M3,15"/>
	<rect x="10" y="3" fill="#FDAF42" width="4" height="18"/>
	<path fill="#FFFFFF" d="M14.1,10.8v2.5H9.9v-2.5H14.1 M14.7,9.8H9.2c-0.1,0-0.3,0.1-0.3,0.3v4c0,0.1,0.1,0.3,0.3,0.3h5.6
		c0.1,0,0.3-0.1,0.3-0.3v-4C14.9,9.9,14.8,9.8,14.7,9.8L14.7,9.8z M14.7,9.8"/>
</g>
</svg>
