<?xml version="1.0" encoding="utf-8"?>
<!-- Generator: Adobe Illustrator 18.0.0, SVG Export Plug-In . SVG Version: 6.00 Build 0)  -->
<!DOCTYPE svg PUBLIC "-//W3C//DTD SVG 1.1//EN" "http://www.w3.org/Graphics/SVG/1.1/DTD/svg11.dtd">
<svg version="1.1" id="图层_1" xmlns="http://www.w3.org/2000/svg" xmlns:xlink="http://www.w3.org/1999/xlink" x="0px" y="0px"
	 viewBox="0 0 24 24" enable-background="new 0 0 24 24" xml:space="preserve">
<rect x="1" y="1" display="none" width="22" height="22"/>
<g>
	<g>
		<g>
			<g>
				<path fill="#333333" d="M12,11.3c-0.9,0-1.8-0.2-2.6-0.7C7.8,9.7,6.8,8,6.8,6.1C6.8,3.3,9.1,1,12,1c2.8,0,5.1,2.3,5.1,5.1
					c0,1.8-1,3.5-2.6,4.4C13.7,11,12.9,11.3,12,11.3z M12,1.8c-2.4,0-4.3,1.9-4.3,4.3c0,1.5,0.8,3,2.1,3.7c0.7,0.4,1.4,0.6,2.1,0.6
					c0.8,0,1.5-0.2,2.1-0.6c1.3-0.8,2.1-2.2,2.1-3.7C16.2,3.8,14.3,1.8,12,1.8z"/>
				<path fill="#333333" d="M12,11.4c-0.9,0-1.8-0.2-2.6-0.7C7.7,9.8,6.7,8,6.7,6.1C6.7,3.2,9,0.8,12,0.8s5.3,2.4,5.3,5.3
					c0,1.9-1,3.6-2.6,4.6C13.8,11.2,12.9,11.4,12,11.4z M12,1.2c-2.8,0-5,2.2-5,5c0,1.8,1,3.4,2.5,4.3c1.5,0.9,3.5,0.9,5,0
					c1.5-0.9,2.5-2.5,2.5-4.3C16.9,3.4,14.7,1.2,12,1.2z M12,10.6c-0.8,0-1.5-0.2-2.2-0.6C8.4,9.2,7.5,7.7,7.5,6.1
					c0-2.4,2-4.4,4.4-4.4s4.4,2,4.4,4.4c0,1.6-0.9,3.1-2.2,3.8C13.5,10.4,12.7,10.6,12,10.6z M12,2C9.7,2,7.8,3.9,7.8,6.1
					c0,1.5,0.8,2.8,2.1,3.6c1.3,0.7,2.9,0.7,4.1,0c1.3-0.7,2.1-2.1,2.1-3.6C16.1,3.9,14.2,2,12,2z"/>
			</g>
		</g>
		<g>
			<g>
				<path fill="#333333" d="M21,23H3c-0.7,0-1.3-0.6-1.3-1.3v-0.1l3-8.5c0-0.7,0.6-1.3,1.3-1.3h3.1l1.3,5.1l0.3-2.7l-0.6-1.3v-0.1
					c0-0.5,0.5-1,1.1-1h1.3c0.6,0,1.1,0.4,1.1,1v0.1l-0.6,1.3l0.2,2.4l1.2-4.9H18c0.7,0,1.3,0.6,1.3,1.3l3,8.6v0.1
					C22.3,22.4,21.7,23,21,23z M2.6,21.7c0,0.2,0.2,0.4,0.5,0.4H21c0.2,0,0.4-0.2,0.5-0.4l-2.9-8.5l0-0.1c0-0.3-0.2-0.5-0.5-0.5
					h-2.7L13,20.5l-0.7-6.4l0.6-1.3c0,0-0.1-0.1-0.2-0.1h-1.3c-0.1,0-0.2,0-0.2,0.1l0.6,1.3l-0.8,6.7l-2.3-8.1H6
					c-0.3,0-0.5,0.2-0.5,0.5v0.1L2.6,21.7z"/>
				<path fill="#333333" d="M21,23.2H3c-0.8,0-1.5-0.7-1.5-1.5l0-0.1L4.5,13c0.1-0.8,0.7-1.4,1.5-1.4h3.2l1.1,4.4l0.2-1.8L10,12.9
					v-0.1c0-0.6,0.6-1.1,1.3-1.1h1.3c0.7,0,1.3,0.5,1.3,1.1l0,0.1l-0.5,1.3l0.2,1.5l1.1-4.2H18c0.8,0,1.4,0.6,1.5,1.4l3,8.6v0.1
					C22.4,22.5,21.8,23.2,21,23.2z M1.9,21.6L1.9,21.6c0,0.7,0.5,1.2,1.2,1.2H21c0.6,0,1.2-0.5,1.2-1.2v0l-3-8.6
					c0-0.6-0.5-1.1-1.2-1.1h-3.3l-1.4,5.6L13,14.2l0,0l0.5-1.3v-0.1c0-0.5-0.4-0.8-1-0.8h-1.3c-0.5,0-1,0.4-1,0.8v0.1l0.6,1.3
					l-0.4,3.6L9,11.9H6c-0.6,0-1.1,0.5-1.2,1.1l0,0L1.9,21.6z M21,22.3H3c-0.3,0-0.6-0.2-0.6-0.6l0,0l0,0l2.9-8.6
					c0-0.3,0.3-0.6,0.6-0.6h2.6l2.2,7.5l0.7-5.9l-0.6-1.3l0.1-0.1c0.1-0.1,0.2-0.2,0.4-0.2h1.3c0.2,0,0.3,0.1,0.4,0.2l0.1,0.1
					l-0.6,1.4l0.7,5.7l2.1-7.3H18c0.3,0,0.6,0.3,0.6,0.6v0l3,8.5l0,0C21.5,22.1,21.3,22.3,21,22.3z M2.7,21.7C2.8,21.9,2.9,22,3,22
					H21c0.1,0,0.3-0.1,0.3-0.3l-2.9-8.5v-0.1c0-0.2-0.1-0.3-0.3-0.3h-2.6l-2.4,8.5l-0.8-7.2l0.5-1.2c0,0,0,0-0.1,0h-1.3c0,0,0,0,0,0
					l0.5,1.2l0,0l-0.9,7.4l-2.5-8.7H6c-0.2,0-0.3,0.2-0.3,0.3l0,0.1L2.7,21.7z"/>
			</g>
		</g>
	</g>
	<g>
		<polygon fill="#108CEE" points="15.8,17 15.6,18.3 16.7,17.7 16.7,17.7 17.8,18.3 17.6,17 17.6,17 18.5,16.1 17.3,15.9 17.3,15.9 
			16.7,14.7 16.2,15.9 16.1,15.9 14.9,16.1 15.8,17 15.8,17 		"/>
	</g>
</g>
</svg>
