<?xml version="1.0" encoding="utf-8"?>
<!-- Generator: Adobe Illustrator 18.0.0, SVG Export Plug-In . SVG Version: 6.00 Build 0)  -->
<!DOCTYPE svg PUBLIC "-//W3C//DTD SVG 1.1//EN" "http://www.w3.org/Graphics/SVG/1.1/DTD/svg11.dtd">
<svg version="1.1" id="图层_1" xmlns="http://www.w3.org/2000/svg" xmlns:xlink="http://www.w3.org/1999/xlink" x="0px" y="0px"
	 viewBox="0 0 24 24" enable-background="new 0 0 24 24" xml:space="preserve">
<rect x="1" y="1" display="none" width="22" height="22"/>
<g>
	<path d="M18.3,6.5L6.5,18.3c-0.2,0.2-0.6,0.2-0.8,0l0,0c-0.2-0.2-0.2-0.6,0-0.8L17.5,5.7c0.2-0.2,0.6-0.2,0.8,0v0
		C18.6,5.9,18.6,6.3,18.3,6.5z"/>
	<path d="M6.5,5.7l11.8,11.8c0.2,0.2,0.2,0.6,0,0.8l0,0c-0.2,0.2-0.6,0.2-0.8,0L5.7,6.5c-0.2-0.2-0.2-0.6,0-0.8l0,0
		C5.9,5.4,6.3,5.4,6.5,5.7z"/>
</g>
</svg>
